<?xml version="1.0" standalone="no"?>
<!DOCTYPE svg PUBLIC "-//W3C//DTD SVG 1.1//EN" "http://www.w3.org/Graphics/SVG/1.1/DTD/svg11.dtd" >
<svg xmlns="http://www.w3.org/2000/svg" xmlns:xlink="http://www.w3.org/1999/xlink" version="1.1">
<metadata>
Created by FontForge 20170924 at Wed Oct 12 10:00:24 2016
 By www-data
Created by Jean Baptiste Morizot, certains droits reserves (c) 2014
</metadata>
<defs>
<font id="BluuNext-Bold" horiz-adv-x="355" >
  <font-face 
    font-family="Bluu Next"
    font-weight="700"
    font-stretch="normal"
    units-per-em="1000"
    panose-1="2 0 8 0 0 0 0 0 0 0"
    ascent="740"
    descent="-260"
    x-height="490"
    cap-height="685"
    bbox="-12 -232 1098 927"
    underline-thickness="50"
    underline-position="-100"
    unicode-range="U+000D-FB02"
  />
<missing-glyph horiz-adv-x="500" 
d="M49 0v493h401v-493h-401zM99 50h301v393h-301v-393zM260 269h71l-139 -159h-2l49 117h-71l139 159h2z" />
    <glyph glyph-name=".notdef" horiz-adv-x="500" 
d="M49 0v493h401v-493h-401zM99 50h301v393h-301v-393zM260 269h71l-139 -159h-2l49 117h-71l139 159h2z" />
    <glyph glyph-name="Eth" unicode="&#xd0;" horiz-adv-x="708" 
d="M99 378v201l-74 106h266q185 0 283.5 -79.5t98.5 -223.5q0 -179 -106 -280.5t-293 -101.5h-249l74 106v222h-74v50h74zM375 328h-146v-290h63q119 0 180 77t61 229q0 153 -59 231t-175 78h-70v-275h146v-50z" />
    <glyph glyph-name="eth" unicode="&#xf0;" horiz-adv-x="540" 
d="M307 660l117 67l2 -58l-88 -43q86 -99 129 -188.5t43 -170.5q0 -118 -73.5 -198.5t-194.5 -80.5q-96 0 -154 66.5t-58 168.5q0 118 73.5 198.5t194.5 80.5h2q-9 15 -20 32.5t-32 47.5l-117 -57v34l93 54q-20 25 -42 51t-47 53h116l34 -34t22 -23zM297 26q42 0 65 41.5
t23 108.5q0 125 -39.5 206.5t-101.5 81.5q-44 0 -65.5 -34t-21.5 -116q0 -125 39 -206.5t101 -81.5z" />
    <glyph glyph-name="Lslash" unicode="&#x141;" horiz-adv-x="624" 
d="M579 215h10l-11 -215h-529l60 106v183l-99 -29v62l99 29v230l-60 104h266l-76 -105v-191l131 39v-64l-131 -38v-290h201z" />
    <glyph glyph-name="lslash" unicode="&#x142;" horiz-adv-x="311" 
d="M316 401l-108 -45v-270l74 -86h-268l74 86v221l-93 -39v62l93 39v71l-68 77l68 21v38l-68 77l188 57v-290l108 45v-64z" />
    <glyph glyph-name="Scaron" unicode="&#x160;" horiz-adv-x="533" 
d="M175 869h15l89 -70l89 70h15l-63 -129h-83zM246 -8q-51 0 -107.5 10t-91.5 26l-12 240h12q26 -103 91 -170.5t141 -67.5q44 0 74 28.5t30 71.5q0 32 -13 57.5t-40 46.5q-15 13 -36.5 25t-70.5 34q-57 26 -83 42t-45 33q-29 26 -43 58.5t-14 73.5q0 82 58.5 133.5
t158.5 51.5h143l48 15v-216l-12 1q-24 78 -78.5 123t-124.5 45q-43 0 -69 -24.5t-26 -66.5t30.5 -74.5t132.5 -80.5q57 -27 83.5 -42.5t46.5 -31.5q32 -27 48 -59t16 -70q0 -100 -66.5 -156t-180.5 -56z" />
    <glyph glyph-name="scaron" unicode="&#x161;" horiz-adv-x="411" 
d="M116 681h14l85 -73l83 73h16l-58 -129h-83zM190 -10q-44 0 -87.5 6t-68.5 17l-9 176h8q20 -67 74 -114t113 -47q35 0 55 17t20 48q0 27 -20 46.5t-87 43.5q-49 17 -72 29t-39 26q-24 21 -35.5 49t-11.5 64q0 59 47 99t120 40h110l37 21v-166l-6 1q-26 48 -72.5 80
t-87.5 32q-31 0 -48.5 -18t-17.5 -48q0 -24 20 -41t88 -39q49 -17 72.5 -28.5t40.5 -23.5q27 -21 40 -48t13 -61q0 -72 -58 -116.5t-138 -44.5z" />
    <glyph glyph-name="Yacute" unicode="&#xdd;" horiz-adv-x="689" 
d="M494 869l-129 -129h-15l13 129h131zM409 318v-217l84 -101h-298l84 101v180l-178 298l-91 106h321l-85 -106h-1l118 -189l16 -33l131 224l-85 104h254l-103 -94z" />
    <glyph glyph-name="yacute" unicode="&#xfd;" horiz-adv-x="535" 
d="M297 681h126l-129 -129h-15zM247 10l-181 399l-66 81h265l-73 -64l105 -258l12 -34l121 292l-73 64h178l-59 -62l-232 -557l72 -86h-216l88 90z" />
    <glyph glyph-name="Thorn" unicode="&#xde;" horiz-adv-x="605" 
d="M318 685l-74 -106v-21h36q125 0 201.5 -47.5t76.5 -135.5q0 -80 -63.5 -136.5t-158.5 -68.5q-21 -3 -46 -5t-46 -2v-57l90 -106h-294l74 106v473l-74 106h278zM244 197q84 0 128 42t44 124q0 81 -44 123t-128 42v-331z" />
    <glyph glyph-name="thorn" unicode="&#xfe;" horiz-adv-x="604" 
d="M94 576l-68 77l188 57v-285q34 40 70.5 57.5t82.5 17.5q89 0 144.5 -67t55.5 -168q0 -53 -18.5 -104.5t-52.5 -89.5q-35 -40 -83 -60t-106 -20q-17 0 -42 3t-51 9v-132l93 -86h-287l74 86v705zM449 174q0 113 -42.5 182.5t-109.5 69.5q-20 0 -40 -7t-43 -21v-295
q28 -32 62.5 -50t69.5 -18q53 0 78 33t25 106z" />
    <glyph glyph-name="CR" unicode="&#xd;" horiz-adv-x="0" 
 />
    <glyph glyph-name="Zcaron" unicode="&#x17d;" horiz-adv-x="668" 
d="M238 869h15l89 -70l89 70h15l-63 -129h-83zM615 685l7 -14l-430 -635h284l139 179h8l-11 -215h-575l-7 12l425 637h-239l-134 -181h-8l6 227l106 -10h429z" />
    <glyph glyph-name="zcaron" unicode="&#x17e;" horiz-adv-x="507" 
d="M172 681h14l85 -73l83 73h16l-58 -129h-83zM147 490h336l-301 -454h181l124 180l-18 -201v-15h-449l301 454h-155l-105 -158v212z" />
    <glyph glyph-name="onehalf" unicode="&#xbd;" horiz-adv-x="844" 
d="M112 -33l451 752h48l-452 -752h-47zM131 339v228l-68 -23l-1 1l153 142v-348l67 -42h-213zM782 153l-15 -153h-298l-6 21q86 61 139.5 134t53.5 137q0 30 -20.5 48t-56.5 18q-34 0 -58.5 -21t-44.5 -69h-3v110h95q81 0 132.5 -26.5t51.5 -71.5q0 -29 -18.5 -56.5
t-60.5 -60.5q-9 -7 -52 -38t-62 -51l2 -3l34 3l143 2l41 77h3z" />
    <glyph glyph-name="onequarter" unicode="&#xbc;" horiz-adv-x="745" 
d="M153 -33l451 752h48l-452 -752h-47zM131 339v228l-68 -23l-1 1l153 142v-348l67 -42h-213zM556 175l85 113v-165h91v-29h-91v-52l67 -42h-213l62 42v53h-172l170 284h102l-200 -255h99v51z" />
    <glyph glyph-name="onesuperior" unicode="&#xb9;" horiz-adv-x="329" 
d="M131 468v228l-68 -23l-1 1l153 142v-348l67 -42h-213z" />
    <glyph glyph-name="threequarters" unicode="&#xbe;" horiz-adv-x="807" 
d="M188 -33l451 752h48l-452 -752h-47zM340 425q0 -31 -32 -56.5t-93 -44.5q-41 -13 -87.5 -20.5t-79.5 -7.5l-5 19q78 0 131.5 23.5t53.5 64.5q0 35 -28 56t-90 32q-3 0 -10.5 -1.5t-11.5 -2.5l-2 11l24 7q76 25 102 46.5t26 47.5q0 30 -23.5 48t-62.5 18q-29 0 -50.5 -18
t-45.5 -70h-4v108h110q83 0 127.5 -19.5t44.5 -57.5q0 -30 -37 -53.5t-121 -45.5q80 -6 122 -27t42 -57zM591 175l85 113v-165h91v-29h-91v-52l67 -42h-213l62 42v53h-172l170 284h102l-200 -255h99v51z" />
    <glyph glyph-name="threesuperior" unicode="&#xb3;" 
d="M340 545q0 -31 -32 -56.5t-93 -44.5q-41 -13 -87.5 -20.5t-79.5 -7.5l-5 19q78 0 131.5 23.5t53.5 64.5q0 35 -28 56t-90 32q-3 0 -10.5 -1.5t-11.5 -2.5l-2 11l24 7q76 25 102 46.5t26 47.5q0 30 -23.5 48t-62.5 18q-29 0 -50.5 -18t-45.5 -70h-4v108h110
q83 0 127.5 -19.5t44.5 -57.5q0 -30 -37 -53.5t-121 -45.5q80 -6 122 -27t42 -57z" />
    <glyph glyph-name="twosuperior" unicode="&#xb2;" 
d="M344 585l-15 -153h-298l-6 21q86 61 139.5 134t53.5 137q0 30 -20.5 48t-56.5 18q-34 0 -58.5 -21t-44.5 -69h-3v110h95q81 0 132.5 -26.5t51.5 -71.5q0 -29 -18.5 -56.5t-60.5 -60.5q-9 -7 -52 -38t-62 -51l2 -3l34 3l143 2l41 77h3z" />
    <glyph glyph-name="brokenbar" unicode="&#xa6;" horiz-adv-x="287" 
d="M188 370h-89v330h89v-330zM99 180h89v-330h-89v330z" />
    <glyph glyph-name="minus" unicode="&#x2212;" horiz-adv-x="446" 
d="M33 311h380v-70h-380v70z" />
    <glyph glyph-name="multiply" unicode="&#xd7;" horiz-adv-x="393" 
d="M311 432l51 -57l-115 -121l124 -130l-51 -51l-123 129l-124 -130l-51 57l122 128l-113 119l51 51l112 -118z" />
    <glyph glyph-name="space" unicode=" " horiz-adv-x="215" 
 />
    <glyph glyph-name="exclam" unicode="!" horiz-adv-x="217" 
d="M33 657l67 46l66 -46l-48 -437h-36zM190 66l-85 -92l-86 92l86 93z" />
    <glyph glyph-name="quotedbl" unicode="&#x22;" horiz-adv-x="246" 
d="M24 695h74l-18 -220h-40zM141 695h74l-18 -220h-40z" />
    <glyph glyph-name="numbersign" unicode="#" horiz-adv-x="584" 
d="M226 608h74l-46 -179h118l47 179h74l-47 -179h108v-50h-121l-37 -152h130v-51h-143l-47 -176h-74l47 176h-118l-48 -176h-74l48 176h-87v51h100l37 152h-109v50h122zM359 379h-118l-37 -152h118z" />
    <glyph glyph-name="dollar" unicode="$" horiz-adv-x="465" 
d="M194 -7q-43 2 -85 10.5t-68 20.5l-11 209h10q19 -73 60.5 -126.5t93.5 -72.5v209q-95 42 -128 83.5t-33 101.5q0 70 43 115t119 52v54h62l-2 -53h91l42 13v-188l-7 1q-18 52 -51 87t-76 50l-7 -189q64 -27 86.5 -39t38.5 -24q32 -24 47.5 -53.5t15.5 -66.5
q0 -90 -51.5 -139.5t-149.5 -54.5l-2 -51h-38v51zM195 568q-35 -2 -56 -23t-21 -56q0 -29 18.5 -52t58.5 -44v175zM340 104q0 36 -22 63.5t-76 53.5l-7 -195h7q42 0 70 21.5t28 56.5z" />
    <glyph glyph-name="percent" unicode="%" horiz-adv-x="781" 
d="M143 -33l451 752h48l-452 -752h-47zM33 474q0 88 51 151.5t132 63.5q65 0 105.5 -52t40.5 -129q0 -88 -51.5 -151.5t-132.5 -63.5q-64 0 -104.5 52t-40.5 129zM216 322q28 0 45 35t17 81q0 92 -28 157t-69 65q-31 0 -46.5 -29.5t-15.5 -86.5q0 -93 28 -157.5t69 -64.5z
M419 171q0 88 51 151.5t132 63.5q65 0 105.5 -52t40.5 -129q0 -88 -51.5 -151.5t-132.5 -63.5q-64 0 -104.5 52t-40.5 129zM602 19q28 0 45 35t17 81q0 92 -28 157t-69 65q-31 0 -46.5 -29.5t-15.5 -86.5q0 -93 28 -157.5t69 -64.5z" />
    <glyph glyph-name="ampersand" unicode="&#x26;" horiz-adv-x="791" 
d="M430 350l106 -144l82 162l-96 68h246l-118 -70l-98 -183l80 -108l93 -75h-192l-64 92q-62 -57 -117 -82t-115 -25q-93 0 -143 38t-50 108t69 126.5t178 80.5v45h-2q-81 0 -129 40t-48 102q0 72 61 121t162 49q82 0 130.5 -38.5t48.5 -99.5q0 -58 -43 -105t-115 -62l5 -40
h69zM331 408q30 0 47.5 28.5t17.5 66.5q0 69 -30.5 117.5t-73.5 48.5q-32 0 -47.5 -20.5t-15.5 -68.5q0 -71 30 -121.5t72 -50.5zM182 176q0 -63 36 -94t109 -31q34 0 69.5 17.5t57.5 45.5l-144 208q-55 -14 -91.5 -55.5t-36.5 -90.5z" />
    <glyph glyph-name="quotesingle" unicode="'" horiz-adv-x="134" 
d="M26 695h74l-18 -220h-40z" />
    <glyph glyph-name="parenleft" unicode="(" horiz-adv-x="291" 
d="M93 530q15 26 34.5 51.5t44.5 52.5q21 23 55.5 55.5t38.5 36.5l15 -15q-81 -83 -116.5 -181.5t-35.5 -253.5t35.5 -254t116.5 -181l-15 -15q-78 68 -113.5 109.5t-60.5 85.5q-31 56 -46 119.5t-15 135.5q0 35 3.5 68t11.5 64q7 32 19 62.5t28 59.5z" />
    <glyph glyph-name="parenright" unicode=")" horiz-adv-x="290" 
d="M10 -159q81 82 116.5 181t35.5 254t-35.5 253.5t-116.5 181.5l15 15q5 -5 39 -37t54 -54q25 -27 44.5 -53t34.5 -53q16 -28 28 -58.5t20 -63.5q7 -31 10.5 -63.5t3.5 -67.5q0 -72 -15 -135.5t-46 -118.5q-24 -44 -59 -85.5t-114 -110.5z" />
    <glyph glyph-name="asterisk" unicode="*" horiz-adv-x="335" 
d="M168 696l37 -40l-27 -119h-18l-28 117zM21 551l-16 52l54 10l88 -82l-9 -16zM331 603l-17 -52l-116 -36l-9 16l87 82zM5 411l16 52l117 36l9 -16l-88 -83zM314 463l17 -52l-55 -11l-87 83l9 16zM170 320l-37 40l27 119h18l28 -117z" />
    <glyph glyph-name="plus" unicode="+" horiz-adv-x="525" 
d="M210 483l79 30v-203h179v-72h-179v-183l-79 -30v213h-170v72h170v173z" />
    <glyph glyph-name="comma" unicode="," horiz-adv-x="227" 
d="M113 159q33 -20 57 -48t24 -49q0 -45 -34.5 -90t-112.5 -95l-14 10q31 26 48 52.5t17 51.5q0 11 -3.5 20t-25.5 32l-39 31z" />
    <glyph glyph-name="hyphen" unicode="-" horiz-adv-x="294" 
d="M30 322h245v-80h-245v80z" />
    <glyph glyph-name="period" unicode="." horiz-adv-x="181" 
d="M176 66l-85 -92l-86 92l86 93z" />
    <glyph glyph-name="slash" unicode="/" horiz-adv-x="445" 
d="M340 695h77l-312 -695h-77z" />
    <glyph glyph-name="zero" unicode="0" horiz-adv-x="561" 
d="M40 268q0 138 75 236t193 98q95 0 154 -81t59 -201q0 -138 -75 -236t-193 -98q-94 0 -153.5 81t-59.5 201zM306 31q41 0 66.5 54.5t25.5 125.5q0 145 -41 245.5t-101 100.5q-45 0 -68 -46.5t-23 -133.5q0 -145 40.5 -245.5t100.5 -100.5z" />
    <glyph glyph-name="one" unicode="1" horiz-adv-x="382" 
d="M133 66v354l-97 -36l-1 2l218 221v-541l94 -66h-303z" />
    <glyph glyph-name="two" unicode="2" horiz-adv-x="528" 
d="M488 240l-21 -240h-424l-8 33q121 95 197.5 210t76.5 215q0 50 -30 80t-80 30q-47 0 -81 -33.5t-65 -112.5h-5v173h136q116 0 188.5 -42t72.5 -113q0 -50 -34 -98t-141 -130q-51 -39 -73.5 -59t-37.5 -37l2 -5l62 5l203 3l58 121h4z" />
    <glyph glyph-name="three" unicode="3" horiz-adv-x="502" 
d="M457 186q0 -48 -44 -88t-129 -69q-57 -20 -125 -32.5t-116 -12.5l-8 25q108 0 186 39t78 104q0 55 -40 88.5t-129 50.5q-2 0 -5 -1t-8 -2q-8 -2 -11.5 -2.5t-6.5 -1.5l-2 17l33 12q106 37 144 71.5t38 76.5q0 48 -33.5 77t-88.5 29q-41 0 -72 -30t-64 -112h-5v170h154
q118 0 181.5 -30.5t63.5 -89.5q0 -49 -55 -86t-177 -70q120 -10 180.5 -43.5t60.5 -89.5z" />
    <glyph glyph-name="four" unicode="4" horiz-adv-x="568" 
d="M278 274l122 178v-259h128v-45h-128v-82l94 -66h-303l88 66v83h-244l241 446h146l-284 -401h140v80z" />
    <glyph glyph-name="five" unicode="5" horiz-adv-x="481" 
d="M399 476h-280l-20 -122l39 21q25 11 50.5 16.5t49.5 5.5q80 0 139 -53t59 -131q0 -102 -72 -157t-204 -55h-120q2 53 3 96t1 76h7q11 -27 27 -50.5t37 -44.5q24 -24 49.5 -36.5t51.5 -12.5q54 0 76 33.5t22 110.5q0 96 -28 140t-84 44q-19 0 -47 -9.5t-61 -27.5h-4
l-5 -27h-35l42 293l1 10h284l59 51l-11 -51z" />
    <glyph glyph-name="six" unicode="6" horiz-adv-x="508" 
d="M239 -12q-86 0 -142.5 52t-56.5 133q0 135 102 246t289 184l6 -19q-111 -50 -173.5 -114t-86.5 -151q31 20 59 31t50 11q78 0 127.5 -48.5t49.5 -128.5q0 -78 -64.5 -137t-159.5 -59zM345 163q0 68 -32.5 112.5t-75.5 44.5q-22 0 -35.5 -5.5t-30.5 -20.5
q-5 -22 -7.5 -47.5t-2.5 -54.5q0 -84 25 -129t73 -45q39 0 62.5 44t23.5 101z" />
    <glyph glyph-name="seven" unicode="7" horiz-adv-x="483" 
d="M343 475h-255l-50 -73h-3v193h428l-344 -635l-34 16z" />
    <glyph glyph-name="eight" unicode="8" horiz-adv-x="495" 
d="M89 361q-15 21 -22 43t-7 49q0 72 57.5 114.5t144.5 42.5q65 0 111 -33t46 -87q0 -39 -21.5 -70.5t-72.5 -62.5q82 -54 107 -93.5t25 -90.5q0 -85 -69.5 -136.5t-162.5 -51.5q-82 0 -135.5 41t-53.5 105q0 29 9.5 53.5t28.5 45.5q11 13 26 24.5t59 39.5q-43 37 -53 47
t-17 20zM149 487q0 -22 14 -40t46 -36q17 -9 49.5 -23.5t43.5 -19.5q33 21 48.5 48t15.5 62q0 52 -29.5 79.5t-83.5 27.5q-45 0 -74.5 -26.5t-29.5 -71.5zM333 202q-11 13 -27.5 24.5t-40.5 22.5q-15 7 -42 17.5t-36 14.5q-44 -25 -71 -64t-27 -82q0 -56 36.5 -90.5
t100.5 -34.5q62 0 98 30.5t36 84.5q0 23 -6.5 42.5t-20.5 34.5z" />
    <glyph glyph-name="nine" unicode="9" horiz-adv-x="503" 
d="M463 430q0 -137 -104 -252.5t-287 -187.5q-2 6 -3.5 11t-2.5 9q111 49 173.5 113t86.5 152q-27 -20 -55.5 -31t-53.5 -11q-78 0 -127.5 48.5t-49.5 128.5q0 78 64.5 137t159.5 59q88 0 143.5 -48.5t55.5 -127.5zM158 430q0 -67 32.5 -111.5t75.5 -44.5q23 0 36.5 5.5
t29.5 19.5q5 26 7.5 51.5t2.5 50.5q0 85 -25 130t-73 45q-39 0 -62.5 -44.5t-23.5 -101.5z" />
    <glyph glyph-name="colon" unicode=":" horiz-adv-x="181" 
d="M176 335l-85 -92l-86 92l86 93zM176 66l-85 -92l-86 92l86 93z" />
    <glyph glyph-name="semicolon" unicode=";" horiz-adv-x="243" 
d="M212 351l-85 -92l-86 92l86 93zM126 159q33 -20 57 -48t24 -49q0 -45 -34.5 -90t-112.5 -95l-14 10q31 26 48 52.5t17 51.5q0 11 -3.5 20t-25.5 32l-39 31z" />
    <glyph glyph-name="less" unicode="&#x3c;" horiz-adv-x="559" 
d="M514 40l-468 172v80l468 172v-72l-303 -117l303 -163v-72z" />
    <glyph glyph-name="equal" unicode="=" horiz-adv-x="487" 
d="M45 333v72h381v-72h-381zM45 129v72h381v-72h-381z" />
    <glyph glyph-name="greater" unicode="&#x3e;" horiz-adv-x="559" 
d="M46 464l468 -172v-80l-468 -172v72l303 117l-303 163v72z" />
    <glyph glyph-name="question" unicode="?" horiz-adv-x="504" 
d="M98 525l-8 -1l-24 171h86q163 0 235.5 -38t72.5 -117q0 -40 -22.5 -74t-69.5 -63q-34 -22 -91 -46.5t-65 -28.5l-12 -108h-24l-18 122q66 23 108 72.5t42 103.5q0 69 -20 104.5t-58 35.5q-48 0 -79.5 -31.5t-52.5 -101.5zM275 66l-85 -92l-86 92l86 93z" />
    <glyph glyph-name="at" unicode="@" horiz-adv-x="821" 
d="M403 -142q137 0 235.5 78t98.5 184q0 29 -8.5 56t-25.5 50l59 41q7 -35 10.5 -64t3.5 -60q0 -68 -31 -128t-89 -105q-52 -41 -118 -63t-135 -22q-158 0 -258 93.5t-100 244.5q0 153 88 243.5t246 90.5h272l-28 -81v-336l29 -80h-168v79q-74 -57 -112.5 -73.5t-73.5 -16.5
q-49 1 -81.5 31.5t-32.5 76.5q0 47 27 81.5t88 65.5q27 13 64 28t121 44q0 47 -6 69.5t-19 37.5q-15 18 -41 26.5t-64 8.5q-126 0 -198 -80.5t-72 -211.5q0 -141 87.5 -224.5t231.5 -83.5zM310 132q0 -31 24 -49t64 -18q22 0 40.5 8.5t45.5 32.5v184q-86 -37 -130 -77.5
t-44 -80.5z" />
    <glyph glyph-name="A" unicode="A" horiz-adv-x="727" 
d="M647 67l75 -67h-308l92 69l-61 145h-260l-54 -136l95 -78h-221l71 79l254 616h47zM203 259h224l-114 274z" />
    <glyph glyph-name="B" unicode="B" horiz-adv-x="630" 
d="M100 106v475l-60 104h229q148 0 215 -36.5t67 -114.5q0 -52 -37.5 -91.5t-120.5 -70.5q101 -23 151.5 -70t50.5 -119q0 -87 -92 -135t-243 -48h-220zM422 514q0 69 -39.5 104t-118.5 35h-34v-275q90 0 141 36.5t51 99.5zM448 186q0 86 -52 126.5t-166 40.5v-314h31
q83 0 135 40t52 107z" />
    <glyph glyph-name="C" unicode="C" horiz-adv-x="651" 
d="M409 685h156v-203h-13q-30 76 -83.5 119t-121.5 43q-80 0 -123.5 -63.5t-43.5 -174.5q0 -138 55.5 -219.5t152.5 -81.5q70 0 123 29t90 87l15 -10q-44 -105 -119.5 -164t-169.5 -59q-133 0 -212.5 90.5t-79.5 240.5q0 73 28.5 142t80.5 121q51 50 118.5 76.5t146.5 26.5z
" />
    <glyph glyph-name="D" unicode="D" horiz-adv-x="735" 
d="M114 106v473l-74 106h266q187 0 290.5 -85.5t103.5 -227.5q0 -171 -111.5 -271.5t-299.5 -100.5h-249zM314 653h-70v-615h63q123 0 189 82t66 224q0 149 -64.5 229t-183.5 80z" />
    <glyph glyph-name="E" unicode="E" horiz-adv-x="592" 
d="M409 36l132 183l11 -2l-11 -217h-501l60 106v475l-60 104h482v-210h-12l-110 174h-170v-277h273v-45h-273v-291h179z" />
    <glyph glyph-name="F" unicode="F" horiz-adv-x="562" 
d="M337 0h-297v6l60 100v475l-60 104h482v-204h-10l-112 168h-170v-280h265v-46h-265v-217z" />
    <glyph glyph-name="G" unicode="G" horiz-adv-x="687" 
d="M377 298v11h286v-10l-53 -37v-268h-15l-95 53q-43 -30 -86.5 -45t-86.5 -15q-133 0 -212.5 90.5t-79.5 240.5q0 73 28.5 142t80.5 121q51 50 118.5 76.5t146.5 26.5h156v-203h-13q-54 94 -102 128t-110 34q-76 0 -116 -60.5t-40 -177.5q0 -167 54.5 -256t160.5 -89
q18 0 41.5 5.5t41.5 13.5v166z" />
    <glyph glyph-name="H" unicode="H" horiz-adv-x="780" 
d="M740 685l-75 -106v-473l74 -106h-278l74 106v227h-301v-227l74 -106h-278l74 106v474l-73 105h278l-75 -106v-201h301v202l-73 105h278z" />
    <glyph glyph-name="I" unicode="I" horiz-adv-x="358" 
d="M244 579v-473l74 -106h-278l74 106v473l-74 106h278z" />
    <glyph glyph-name="J" unicode="J" horiz-adv-x="338" 
d="M104 579l-74 106h278l-74 -106v-575q0 -44 -39 -91.5t-106 -88.5l-7 4q10 20 16 47.5t6 51.5v652z" />
    <glyph glyph-name="K" unicode="K" horiz-adv-x="769" 
d="M639 76l118 -76h-329l46 63l-188 261l-42 -42v-176l74 -106h-278l74 106v474l-74 106h278l-74 -106v-235l148 150l110 116l-32 75h232l-145 -90l-175 -175z" />
    <glyph glyph-name="L" unicode="L" horiz-adv-x="610" 
d="M438 45l132 171h10l-11 -216h-529l60 106v475l-60 104h266l-76 -105v-535h208z" />
    <glyph glyph-name="M" unicode="M" horiz-adv-x="916" 
d="M410 -12l-257 520v-412l81 -96h-205l77 96v485l-86 104h198l238 -500l215 500h209l-74 -82v-498l75 -105h-289l84 104v483l-259 -599h-7z" />
    <glyph glyph-name="N" unicode="N" horiz-adv-x="756" 
d="M721 685l-74 -93v-534l43 -58h-155l-367 489v-403l85 -86h-206l74 93v465l-97 127h165l410 -571v485l-86 86h208z" />
    <glyph glyph-name="O" unicode="O" horiz-adv-x="738" 
d="M35 313q0 168 102 276.5t270 108.5q128 0 212 -95.5t84 -229.5q0 -168 -102 -276.5t-270 -108.5q-128 0 -212 95.5t-84 229.5zM402 30q72 0 116.5 67t44.5 155q0 169 -64 286t-163 117q-77 0 -118 -60t-41 -161q0 -170 63.5 -287t161.5 -117z" />
    <glyph glyph-name="P" unicode="P" horiz-adv-x="588" 
d="M244 106l90 -106h-294l74 106v473l-74 106h240q137 0 207.5 -46.5t70.5 -136.5q0 -80 -63.5 -136.5t-158.5 -68.5q-21 -3 -46 -5t-46 -2v-184zM244 324q84 0 128 42t44 124q0 81 -44 123t-128 42v-331z" />
    <glyph glyph-name="Q" unicode="Q" horiz-adv-x="738" 
d="M703 373q0 -101 -40.5 -184.5t-114.5 -134.5l38 -173l-4 -6q-48 17 -100 46.5t-111 73.5q-16 -1 -24.5 -1.5t-15.5 -0.5q-128 0 -212 93.5t-84 226.5q0 167 102 273.5t270 106.5q128 0 212 -93.5t84 -226.5zM402 35q73 0 117 65t44 152q0 168 -64 283t-163 115
q-77 0 -118 -58t-41 -158q0 -169 63 -284t162 -115z" />
    <glyph glyph-name="R" unicode="R" horiz-adv-x="696" 
d="M425 339l155 -241l106 -98h-202q-103 176 -135 226.5t-57 85.5l-48 -4v-202l74 -106h-278l74 106v473l-74 106h253q143 0 215 -45t72 -132q0 -54 -41 -98t-114 -71zM244 341q83 2 136 44t53 111q0 79 -47.5 119t-141.5 40v-314z" />
    <glyph glyph-name="S" unicode="S" horiz-adv-x="533" 
d="M246 -8q-51 0 -107.5 10t-91.5 26l-12 240h12q26 -103 91 -170.5t141 -67.5q44 0 74 27t30 73q0 32 -13 57.5t-40 46.5q-15 13 -36.5 25t-70.5 34q-57 26 -83 42t-45 33q-29 26 -43 58.5t-14 73.5q0 82 58.5 133.5t158.5 51.5h143l48 15v-216l-12 1q-24 78 -78.5 123
t-124.5 45q-43 0 -69 -24.5t-26 -66.5t30.5 -74.5t132.5 -80.5q57 -27 83.5 -42.5t46.5 -31.5q32 -27 48 -59t16 -70q0 -100 -66.5 -156t-180.5 -56z" />
    <glyph glyph-name="T" unicode="T" horiz-adv-x="660" 
d="M155 649l-128 -184l-8 1v219h603v-219l-8 -1l-129 185h-100v-544l74 -106h-278l74 106v543h-100z" />
    <glyph glyph-name="U" unicode="U" horiz-adv-x="781" 
d="M521 685h225l-91 -90l-1 -3v-315q0 -59 -8 -97t-33 -84q-28 -52 -85 -81.5t-131 -29.5q-142 0 -213 60t-71 176v359l-73 105h278l-74 -106v-343q0 -106 41.5 -154.5t148.5 -48.5q86 0 129 67.5t43 200.5v294z" />
    <glyph glyph-name="V" unicode="V" horiz-adv-x="681" 
d="M196 624l174 -439l13 -47l169 461l-85 86h209l-70 -89l-239 -616h-48l-264 646l-52 59h273z" />
    <glyph glyph-name="W" unicode="W" horiz-adv-x="1005" 
d="M564 624l155 -439l12 -44l150 457l-86 87h209l-68 -86l-214 -611h-61l-145 389l-142 -389h-61l-248 638l-52 59h273l-80 -61l164 -439l10 -37l114 288l-72 192l-50 57h273z" />
    <glyph glyph-name="X" unicode="X" horiz-adv-x="722" 
d="M722 0h-340l89 99l-144 195l-144 -200l80 -94h-259l105 104l183 237l-175 238l-103 106h316l-80 -97l134 -175l124 171l-73 101h260l-118 -103l-159 -211l197 -265z" />
    <glyph glyph-name="Y" unicode="Y" horiz-adv-x="689" 
d="M576 591l-167 -273v-212l74 -106h-278l74 106v175l-178 298l-91 106h321l-85 -106h-1l118 -189l16 -33l131 224l-85 104h254z" />
    <glyph glyph-name="Z" unicode="Z" horiz-adv-x="668" 
d="M481 44l138 172h4l-11 -217h-575l-7 12l418 627h-238l-132 -173h-4l6 229l106 -10h429l7 -14l-424 -626h283z" />
    <glyph glyph-name="bracketleft" unicode="[" horiz-adv-x="214" 
d="M196 -160h-191v871h191v-56h-123v-759h123v-56z" />
    <glyph glyph-name="backslash" unicode="\" horiz-adv-x="432" 
d="M340 0l-312 695h77l312 -695h-77z" />
    <glyph glyph-name="bracketright" unicode="]" horiz-adv-x="214" 
d="M199 -160h-191v56h123v759h-123v56h191v-871z" />
    <glyph glyph-name="asciicircum" unicode="^" horiz-adv-x="466" 
d="M192 695h82l-1 -1l188 -412h-72l-186 254l-126 -254h-72l188 412z" />
    <glyph glyph-name="underscore" unicode="_" horiz-adv-x="556" 
d="M0 0h556v-60h-556v60z" />
    <glyph glyph-name="grave" unicode="`" horiz-adv-x="184" 
d="M20 681h126l18 -129h-15z" />
    <glyph glyph-name="a" unicode="a" horiz-adv-x="534" 
d="M440 65l74 -65h-195v84q-46 -45 -91 -69.5t-83 -24.5q-57 0 -88.5 29.5t-31.5 85.5q0 60 59 106.5t235 108.5q0 41 -2 61t-7 34q-8 24 -26.5 35.5t-48.5 11.5q-48 0 -88 -28t-91 -104h-7v160h412l-22 -86v-339h1zM157 138q0 -33 20 -51t55 -18q23 0 45.5 11t41.5 31v181
q-35 -14 -62 -27.5t-45 -26.5q-29 -20 -42 -41.5t-13 -58.5z" />
    <glyph glyph-name="b" unicode="b" horiz-adv-x="598" 
d="M88 576l-68 77l188 57v-285q34 40 70.5 57.5t82.5 17.5q89 0 144.5 -67t55.5 -168q0 -53 -18.5 -104.5t-52.5 -89.5q-35 -40 -83 -60t-106 -20q-24 0 -65 6.5t-76 16.5l-72 -25v587zM443 174q0 115 -41.5 183.5t-110.5 68.5q-20 0 -40 -7t-43 -21v-295q28 -32 62.5 -50
t69.5 -18q53 0 78 33t25 106z" />
    <glyph glyph-name="c" unicode="c" horiz-adv-x="468" 
d="M294 490h120v-160h-7q-32 66 -70 95.5t-87 29.5q-50 0 -77.5 -38t-27.5 -101q0 -102 39 -155.5t110 -53.5q44 0 82.5 28t50.5 62l11 -4q-23 -89 -80.5 -147t-132.5 -58q-88 0 -141.5 67t-53.5 170q0 114 71.5 189.5t192.5 75.5z" />
    <glyph glyph-name="d" unicode="d" horiz-adv-x="597" 
d="M503 70l74 -70l-194 -9v98q-29 -50 -67 -74.5t-86 -24.5q-89 0 -142 66t-53 169q0 115 72 190t192 75h84v86l-68 77l188 57v-640zM154 316q0 -104 40.5 -160t113.5 -56q23 0 40.5 6t34.5 19v269q-28 30 -59 45.5t-64 15.5q-52 0 -79 -36t-27 -103z" />
    <glyph glyph-name="e" unicode="e" horiz-adv-x="492" 
d="M461 285l1 -2h-1v-1h-321q7 -87 49 -135t109 -48q50 0 90.5 22t52.5 54l15 -6q-35 -87 -93 -135t-133 -48q-90 0 -147.5 68.5t-57.5 168.5q0 115 67.5 196t175.5 81q90 0 141 -57t52 -158zM138 319v-7h194v9q0 70 -23.5 109.5t-63.5 39.5q-48 0 -77.5 -45.5t-29.5 -105.5
z" />
    <glyph glyph-name="f" unicode="f" horiz-adv-x="387" 
d="M90 490q11 92 68.5 148t148.5 56h120v-150h-7q-42 64 -78 90t-74 26t-57.5 -20.5t-19.5 -60.5q0 -20 4.5 -43.5t13.5 -45.5h192l-22 -54h-170v-351l91 -86h-285l74 86v342l-70 62l5 -2l-5 3h71z" />
    <glyph glyph-name="g" unicode="g" horiz-adv-x="506" 
d="M269 502q13 0 25.5 -1t25.5 -4l127 92l4 -1q-4 -44 -12 -75t-25 -67q17 -20 26 -45t9 -52q0 -80 -63 -136.5t-163 -56.5q-16 0 -31 2t-29 6q-28 -26 -32.5 -33t-4.5 -12q0 -21 13.5 -33t41.5 -15h269q11 -18 17 -39.5t6 -42.5q0 -96 -70 -158.5t-183 -62.5
q-97 0 -148.5 29t-51.5 84q0 27 21.5 50t63.5 41q-25 10 -42.5 33t-17.5 48q0 32 19.5 59t73.5 60q-44 18 -68.5 56t-24.5 85q0 79 61.5 134t162.5 55zM265 184q27 0 41 26.5t14 78.5q0 80 -26.5 132t-67.5 52q-27 0 -40 -23.5t-13 -75.5q0 -82 25.5 -136t66.5 -54z
M234 -209q72 0 118 32.5t46 77.5q0 20 -3.5 34t-10.5 23h-255q-16 -13 -24.5 -30t-8.5 -38q0 -49 35 -74t103 -25z" />
    <glyph glyph-name="h" unicode="h" horiz-adv-x="624" 
d="M94 566l-68 77l188 67v-299q28 44 72.5 68.5t92.5 24.5q72 0 111 -42t39 -118v-258h1l74 -86h-268l73 85v225q0 73 -20 99.5t-68 26.5q-31 0 -58 -15t-49 -44v-291l74 -86h-268l74 86v480z" />
    <glyph glyph-name="i" unicode="i" horiz-adv-x="318" 
d="M241 639l-85 -93l-86 93l86 92zM99 86v270l-68 77l188 67v-414l74 -86h-268z" />
    <glyph glyph-name="j" unicode="j" horiz-adv-x="260" 
d="M230 639l-85 -93l-86 93l86 92zM88 356l-68 77l188 67v-427h1v-138q0 -23 -12 -45.5t-37 -46.5q-14 -13 -43.5 -36t-38.5 -32l-7 3q8 12 12 30.5t5 44.5v503z" />
    <glyph glyph-name="k" unicode="k" horiz-adv-x="579" 
d="M94 576l-68 77l188 57v-468l166 169l-43 79h215v-7l-104 -61l-144 -130l194 -220l81 -63v-9h-177l-28 44l-160 189v-147l74 -86h-268l74 86v490z" />
    <glyph glyph-name="l" unicode="l" horiz-adv-x="308" 
d="M288 0h-268l74 86v354l-68 77l68 21v38l-68 77l188 57v-624z" />
    <glyph glyph-name="m" unicode="m" horiz-adv-x="914" 
d="M94 356l-68 77l188 67v-73q33 38 70.5 56.5t81.5 18.5q52 0 87.5 -22.5t50.5 -65.5q29 39 74 63.5t91 24.5q72 0 111 -42t39 -118v-256h1l74 -86h-268l73 85v223q0 73 -20 99.5t-68 26.5q-27 0 -50.5 -12t-47.5 -39l2 -20t1 -21v-256h1l74 -86h-268l73 85v223
q0 73 -20 99.5t-68 26.5q-26 0 -49 -11t-45 -35v-302l74 -86h-268l74 86v270z" />
    <glyph glyph-name="n" unicode="n" horiz-adv-x="627" 
d="M531 342v-256l76 -86h-268l72 86v222q0 73 -20 99.5t-68 26.5q-31 0 -58 -15t-49 -44v-289l72 -86h-268l76 86v270l-68 77l188 67v-91q28 44 72.5 68.5t92.5 24.5q72 0 111 -42t39 -118z" />
    <glyph glyph-name="o" unicode="o" horiz-adv-x="557" 
d="M30 223q0 117 75.5 198t197.5 81q97 0 157 -67t60 -168q0 -117 -75.5 -198t-197.5 -81q-97 0 -157 67t-60 168zM302 26q43 0 68 43.5t25 106.5q0 122 -41.5 205t-104.5 83q-46 0 -69 -36.5t-23 -113.5q0 -123 41 -205.5t104 -82.5z" />
    <glyph glyph-name="p" unicode="p" horiz-adv-x="604" 
d="M94 377l-68 77l188 57v-86q34 40 70.5 57.5t82.5 17.5q89 0 144.5 -67t55.5 -168q0 -53 -18.5 -104.5t-52.5 -89.5q-35 -40 -83 -60t-106 -20q-17 0 -42 3t-51 9v-132l93 -86h-287l74 86v506zM449 174q0 113 -42.5 182.5t-109.5 69.5q-20 0 -40 -7t-43 -21v-295
q28 -32 62.5 -50t69.5 -18q53 0 78 33t25 106z" />
    <glyph glyph-name="q" unicode="q" horiz-adv-x="557" 
d="M498 -129l74 -86h-287l93 86v220q-31 -48 -71 -74.5t-82 -26.5q-89 0 -142 66t-53 169q0 115 72 190t192 75q32 0 57 -2.5t56 -9.5l91 22v-629zM149 316q0 -104 40.5 -160t113.5 -56q23 0 40 5t35 19v270q-28 30 -59 45.5t-64 15.5q-52 0 -79 -36t-27 -103z" />
    <glyph glyph-name="r" unicode="r" horiz-adv-x="460" 
d="M31 490h414v-177h-8q-28 67 -67 103.5t-82 36.5q-29 0 -44.5 -13t-20.5 -43q-2 -13 -3 -31.5t-1 -64.5v-215l93 -86h-287l74 86v327z" />
    <glyph glyph-name="s" unicode="s" horiz-adv-x="411" 
d="M190 -10q-44 0 -87.5 6t-68.5 17l-9 176h8q20 -67 74 -114t113 -47q35 0 55 17t20 48q0 27 -20 46.5t-87 43.5q-49 17 -72 29t-39 26q-24 21 -35.5 49t-11.5 64q0 59 47 99t120 40h110l37 21v-166l-6 1q-29 52 -72 82.5t-88 29.5q-31 -1 -48.5 -18.5t-17.5 -47.5
q0 -24 20 -41t88 -39q49 -17 72.5 -28.5t40.5 -23.5q27 -21 40 -48t13 -61q0 -72 -58 -116.5t-138 -44.5z" />
    <glyph glyph-name="t" unicode="t" horiz-adv-x="420" 
d="M76 427l-66 63l186 142v-142h192l-22 -54h-170v-246q0 -69 17.5 -95.5t63.5 -26.5q30 0 57 15.5t41 42.5l12 -16q-38 -64 -81.5 -93t-101.5 -29q-61 0 -94.5 39.5t-33.5 114.5v285z" />
    <glyph glyph-name="u" unicode="u" horiz-adv-x="591" 
d="M80 404l-75 87h195v-307q0 -73 20 -99.5t68 -26.5q26 0 51 12.5t44 34.5v299l-74 87h194v-409l68 -82l-188 -6v80q-31 -43 -68.5 -63.5t-84.5 -20.5q-72 0 -111 42t-39 118v254z" />
    <glyph glyph-name="v" unicode="v" horiz-adv-x="543" 
d="M313 134l121 292l-73 64h177l-56 -63l-197 -441l-4 -8h-20l-200 449l-56 63h264l-73 -64l105 -258z" />
    <glyph glyph-name="w" unicode="w" horiz-adv-x="823" 
d="M278 -22h-22l-190 431l-66 81h265l-73 -64l105 -258l12 -34l89 215l-26 60l-66 81h264l-72 -64l104 -258l12 -22l108 280l-72 64h178l-59 -62l-185 -450h-22l-142 322z" />
    <glyph glyph-name="x" unicode="x" horiz-adv-x="584" 
d="M340 275l160 -210l84 -65h-285l64 66l-98 129l-106 -131l55 -64h-209l89 63l141 172l-146 192l-73 63h273l-64 -64l87 -114l89 114l-55 64h210l-89 -63z" />
    <glyph glyph-name="y" unicode="y" horiz-adv-x="535" 
d="M247 10l-181 399l-66 81h265l-73 -64l105 -258l12 -34l121 292l-73 64h178l-59 -62l-233 -557l72 -86h-215l88 90z" />
    <glyph glyph-name="z" unicode="z" horiz-adv-x="506" 
d="M480 209l6 -2l-17 -192v-15h-449l301 454h-155l-99 -150h-6v204l86 -18h336l-301 -454h181z" />
    <glyph glyph-name="braceleft" unicode="{" horiz-adv-x="296" 
d="M163 376q-8 -16 -20 -30t-28 -26q-17 -12 -40 -23.5t-24 -12.5v-4q1 -1 24 -12.5t40 -23.5q16 -12 28 -26t21 -30q8 -17 12 -35t4 -38q0 -13 -1 -24.5t-3 -31.5q-3 -24 -4 -40t-1 -35q0 -63 17 -89t57 -26l-2 -31q-82 0 -121 38.5t-39 119.5q0 11 1 24.5t5 42.5
q4 32 5 48t1 29q0 36 -11 64.5t-31 43.5q-9 7 -16.5 10.5t-25.5 8.5v30q18 5 25.5 8.5t16.5 10.5q20 15 31 43.5t11 64.5q0 13 -1 29t-5 48q-4 29 -5 42.5t-1 24.5q0 81 39 119.5t121 38.5l2 -31q-40 0 -57 -26t-17 -89q0 -19 1 -35t4 -40q2 -20 3 -31.5t1 -24.5
q0 -20 -4 -38.5t-13 -34.5z" />
    <glyph glyph-name="bar" unicode="|" horiz-adv-x="323" 
d="M99 700h89v-850h-89v850z" />
    <glyph glyph-name="braceright" unicode="}" horiz-adv-x="296" 
d="M101 188q8 16 20 30t28 26q17 12 40 23.5t24 12.5v4q-1 1 -24 12.5t-40 23.5q-16 12 -28 26t-21 30q-8 17 -12 35t-4 38q0 13 1 24.5t3 31.5q3 24 4 40t1 35q0 63 -17 89t-57 26l2 31q82 0 121 -38.5t39 -119.5q0 -11 -1 -24.5t-5 -42.5q-4 -32 -5 -48t-1 -29
q0 -36 11 -64.5t31 -43.5q9 -7 16.5 -10.5t25.5 -8.5v-30q-18 -5 -25.5 -8.5t-16.5 -10.5q-20 -15 -31 -43.5t-11 -64.5q0 -13 1 -29t5 -48q4 -29 5 -42.5t1 -24.5q0 -81 -39 -119.5t-121 -38.5l-2 31q40 0 57 26t17 89q0 19 -1 35t-4 40q-2 20 -3 31.5t-1 24.5q0 20 4 38.5
t13 34.5z" />
    <glyph glyph-name="asciitilde" unicode="~" horiz-adv-x="399" 
d="M47 456l63 109l210 -13l44 34l15 -6l-59 -103l-219 13l-40 -43z" />
    <glyph glyph-name="Adieresis" unicode="&#xc4;" horiz-adv-x="730" 
d="M313 830l-77 -88l-77 88l77 87zM546 830l-76 -88l-78 88l78 87zM513 69l-61 145h-260l-54 -136l95 -78h-221l71 79l254 616h47l270 -628l75 -67h-308zM320 533l-112 -279h228z" />
    <glyph glyph-name="Aring" unicode="&#xc5;" horiz-adv-x="730" 
d="M458 829q0 -40 -28.5 -69t-69.5 -29q-40 0 -69 29t-29 69q0 41 29 69.5t69 28.5q41 0 69.5 -28.5t28.5 -69.5zM424 829q0 26 -19 45t-45 19t-45 -19t-19 -45t19 -45t45 -19t45 19t19 45zM513 69l-61 145h-260l-54 -136l95 -78h-221l71 79l254 616h47l270 -628l75 -67
h-308zM320 533l-112 -279h228z" />
    <glyph glyph-name="Ccedilla" unicode="&#xc7;" horiz-adv-x="651" 
d="M409 685h156v-203h-13q-30 76 -83.5 119t-121.5 43q-80 0 -123.5 -63.5t-43.5 -174.5q0 -138 55.5 -219.5t152.5 -81.5q70 0 123 29t90 87l15 -10q-44 -105 -119.5 -164t-169.5 -59q-133 0 -212.5 90.5t-79.5 240.5q0 73 28.5 142t80.5 121q51 50 118.5 76.5t146.5 26.5z
M265 -76l45 64h31l-12 -22q61 -23 75.5 -35.5t14.5 -26.5q0 -33 -28 -54t-70 -21q-24 0 -42.5 7.5t-39.5 26.5l11 18q15 -14 33 -21t40 -7t36.5 6.5t14.5 16.5q0 11 -11.5 19t-36.5 14q-10 2 -31 6t-30 6v3z" />
    <glyph glyph-name="Eacute" unicode="&#xc9;" horiz-adv-x="592" 
d="M402 869l-129 -129h-15l13 129h131zM541 219l11 -2l-11 -217h-501l60 106v475l-60 104h482v-210h-12l-110 174h-170v-277h273v-45h-273v-291h179z" />
    <glyph glyph-name="Ntilde" unicode="&#xd1;" horiz-adv-x="756" 
d="M452 808q9 0 19 7.5t25 26.5l15 -6l-59 -101q-2 0 -61 5.5t-93 5.5q-8 0 -17 -9.5t-23 -33.5l-14 9l63 107q1 0 57 -5.5t88 -5.5zM721 685l-74 -93v-534l43 -58h-155l-367 489v-403l85 -86h-206l74 93v465l-97 127h165l410 -571v485l-86 86h208z" />
    <glyph glyph-name="Odieresis" unicode="&#xd6;" horiz-adv-x="738" 
d="M325 828l-76 -88l-78 88l78 87zM559 828l-76 -88l-78 88l78 87zM35 313q0 168 102 276.5t270 108.5q128 0 212 -95.5t84 -229.5q0 -168 -102 -276.5t-270 -108.5q-128 0 -212 95.5t-84 229.5zM402 30q72 0 116.5 67t44.5 155q0 169 -64 286t-163 117q-77 0 -118 -60
t-41 -161q0 -170 63.5 -287t161.5 -117z" />
    <glyph glyph-name="Udieresis" unicode="&#xdc;" horiz-adv-x="763" 
d="M384 828l-81 -92l-81 92l81 91zM629 828l-80 -92l-82 92l82 91zM40 685h278l-74 -106v-343q0 -106 41.5 -154.5t148.5 -48.5q86 0 129 67.5t43 200.5v294l-77 90h199l-74 -90v-318q0 -59 -8 -97t-33 -84q-28 -52 -85 -81.5t-131 -29.5q-142 0 -213 60t-71 176v359z" />
    <glyph glyph-name="aacute" unicode="&#xe1;" horiz-adv-x="534" 
d="M230 681h126l-129 -129h-15zM440 65l74 -65h-195v84q-46 -45 -91 -69.5t-83 -24.5q-57 0 -88.5 29.5t-31.5 85.5q0 63 64 109.5t230 95.5q0 46 -2.5 66.5t-7.5 34.5q-9 23 -29 33.5t-54 10.5q-55 0 -96 -30t-74 -95h-7v160h438l-48 -65v-360h1zM157 138q0 -33 20 -51
t55 -18q23 0 45.5 11t41.5 31v172q-78 -24 -120 -62t-42 -83z" />
    <glyph glyph-name="agrave" unicode="&#xe0;" horiz-adv-x="534" 
d="M303 681l18 -129h-15l-129 129h126zM440 65l74 -65h-195v84q-46 -45 -91 -69.5t-83 -24.5q-57 0 -88.5 29.5t-31.5 85.5q0 63 64 109.5t230 95.5q0 46 -2.5 66.5t-7.5 34.5q-9 23 -29 33.5t-54 10.5q-55 0 -96 -30t-74 -95h-7v160h438l-48 -65v-360h1zM157 138
q0 -33 20 -51t55 -18q23 0 45.5 11t41.5 31v172q-78 -24 -120 -62t-42 -83z" />
    <glyph glyph-name="acircumflex" unicode="&#xe2;" horiz-adv-x="534" 
d="M255 625l-85 -73h-14l57 129h83l58 -129h-16zM440 65l74 -65h-195v84q-46 -45 -91 -69.5t-83 -24.5q-57 0 -88.5 29.5t-31.5 85.5q0 63 64 109.5t230 95.5q0 46 -2.5 66.5t-7.5 34.5q-9 23 -29 33.5t-54 10.5q-55 0 -96 -30t-74 -95h-7v160h438l-48 -65v-360h1zM157 138
q0 -33 20 -51t55 -18q23 0 45.5 11t41.5 31v172q-78 -24 -120 -62t-42 -83z" />
    <glyph glyph-name="adieresis" unicode="&#xe4;" horiz-adv-x="534" 
d="M227 622l-67 -77l-68 77l68 76zM432 622l-67 -77l-68 77l68 76zM440 65l74 -65h-195v84q-46 -45 -91 -69.5t-83 -24.5q-57 0 -88.5 29.5t-31.5 85.5q0 63 64 109.5t230 95.5q0 46 -2.5 66.5t-7.5 34.5q-9 23 -29 33.5t-54 10.5q-55 0 -96 -30t-74 -95h-7v160h438l-48 -65
v-360h1zM157 138q0 -33 20 -51t55 -18q23 0 45.5 11t41.5 31v172q-78 -24 -120 -62t-42 -83z" />
    <glyph glyph-name="atilde" unicode="&#xe3;" horiz-adv-x="534" 
d="M187 605q-8 0 -17 -9.5t-23 -33.5l-14 9l63 109q9 -1 19 -2t30 -4q37 -4 55.5 -5.5t34.5 -1.5q9 0 19 7.5t25 26.5l15 -6l-59 -103q-9 1 -20 2t-32 4q-40 4 -59.5 5.5t-36.5 1.5zM440 65l74 -65h-195v84q-46 -45 -91 -69.5t-83 -24.5q-57 0 -88.5 29.5t-31.5 85.5
q0 63 64 109.5t230 95.5q0 46 -2.5 66.5t-7.5 34.5q-9 23 -29 33.5t-54 10.5q-55 0 -96 -30t-74 -95h-7v160h438l-48 -65v-360h1zM157 138q0 -33 20 -51t55 -18q23 0 45.5 11t41.5 31v172q-78 -24 -120 -62t-42 -83z" />
    <glyph glyph-name="aring" unicode="&#xe5;" horiz-adv-x="534" 
d="M352 635q0 -37 -26 -63t-63 -26t-63 26t-26 63t26 63t63 26t63 -26t26 -63zM324 635q0 26 -17.5 43.5t-43.5 17.5q-25 0 -43 -17.5t-18 -43.5q0 -25 18 -43t43 -18q26 0 43.5 18t17.5 43zM440 65l74 -65h-195v84q-46 -45 -91 -69.5t-83 -24.5q-57 0 -88.5 29.5
t-31.5 85.5q0 63 64 109.5t230 95.5q0 46 -2.5 66.5t-7.5 34.5q-9 23 -29 33.5t-54 10.5q-55 0 -96 -30t-74 -95h-7v160h438l-48 -65v-360h1zM157 138q0 -33 20 -51t55 -18q23 0 45.5 11t41.5 31v172q-78 -24 -120 -62t-42 -83z" />
    <glyph glyph-name="ccedilla" unicode="&#xe7;" horiz-adv-x="468" 
d="M294 490h120v-136h-5q-33 50 -72 75.5t-82 25.5q-53 0 -81.5 -36.5t-28.5 -102.5q0 -102 39 -155.5t110 -53.5q44 0 82.5 28t50.5 62l11 -4q-21 -84 -75.5 -142t-124.5 -63l-12 -22q55 -21 70.5 -34t15.5 -28q0 -27 -28 -46.5t-66 -19.5q-22 0 -40 7t-35 22l7 14
q15 -13 32.5 -19.5t37.5 -6.5t33.5 5t13.5 12q0 12 -14 21.5t-55 20.5q-21 5 -27 8t-6 6l42 61q-81 7 -129 73t-48 163q0 114 71.5 189.5t192.5 75.5z" />
    <glyph glyph-name="eacute" unicode="&#xe9;" horiz-adv-x="497" 
d="M244 679h126l-129 -129h-15zM466 285l1 -2h-1v-1h-321q7 -87 49 -135t109 -48q50 0 90.5 22t52.5 54l15 -6q-35 -87 -93 -135t-133 -48q-90 0 -147.5 68.5t-57.5 168.5q0 115 67.5 196t175.5 81q90 0 141 -57t52 -158zM143 319v-7h194v9q0 70 -23.5 109.5t-63.5 39.5
q-48 0 -77.5 -45.5t-29.5 -105.5z" />
    <glyph glyph-name="egrave" unicode="&#xe8;" horiz-adv-x="497" 
d="M264 679l18 -129h-15l-129 129h126zM466 285l1 -2h-1v-1h-321q7 -87 49 -135t109 -48q50 0 90.5 22t52.5 54l15 -6q-35 -87 -93 -135t-133 -48q-90 0 -147.5 68.5t-57.5 168.5q0 115 67.5 196t175.5 81q90 0 141 -57t52 -158zM143 319v-7h194v9q0 70 -23.5 109.5
t-63.5 39.5q-48 0 -77.5 -45.5t-29.5 -105.5z" />
    <glyph glyph-name="ecircumflex" unicode="&#xea;" horiz-adv-x="497" 
d="M343 550l-83 73l-85 -73h-14l57 129h83l58 -129h-16zM466 285l1 -2h-1v-1h-321q7 -87 49 -135t109 -48q50 0 90.5 22t52.5 54l15 -6q-35 -87 -93 -135t-133 -48q-90 0 -147.5 68.5t-57.5 168.5q0 115 67.5 196t175.5 81q90 0 141 -57t52 -158zM143 319v-7h194v9
q0 70 -23.5 109.5t-63.5 39.5q-48 0 -77.5 -45.5t-29.5 -105.5z" />
    <glyph glyph-name="edieresis" unicode="&#xeb;" horiz-adv-x="497" 
d="M160 696l67 -76l-67 -77l-68 77zM365 696l67 -76l-67 -77l-68 77zM466 285l1 -2h-1v-1h-321q7 -87 49 -135t109 -48q50 0 90.5 22t52.5 54l15 -6q-35 -87 -93 -135t-133 -48q-90 0 -147.5 68.5t-57.5 168.5q0 115 67.5 196t175.5 81q90 0 141 -57t52 -158zM143 319v-7
h194v9q0 70 -23.5 109.5t-63.5 39.5q-48 0 -77.5 -45.5t-29.5 -105.5z" />
    <glyph glyph-name="iacute" unicode="&#xed;" horiz-adv-x="318" 
d="M116 681h126l-129 -129h-15zM99 86v270l-68 77l188 67v-414l74 -86h-268z" />
    <glyph glyph-name="igrave" unicode="&#xec;" horiz-adv-x="318" 
d="M36 681h126l18 -129h-15zM99 86v270l-68 77l188 67v-414l74 -86h-268z" />
    <glyph glyph-name="icircumflex" unicode="&#xee;" horiz-adv-x="318" 
d="M150 625l-85 -73h-14l57 129h83l58 -129h-16zM99 86v270l-68 77l188 67v-414l74 -86h-268z" />
    <glyph glyph-name="idieresis" unicode="&#xef;" horiz-adv-x="390" 
d="M160 622l-67 -77l-68 77l68 76zM365 622l-67 -77l-68 77l68 76zM145 86v270l-68 77l188 67v-414l74 -86h-268z" />
    <glyph glyph-name="ntilde" unicode="&#xf1;" horiz-adv-x="624" 
d="M236 605q-8 0 -17 -9.5t-23 -33.5l-14 9l63 109q9 -1 19 -2t30 -4q37 -4 55.5 -5.5t34.5 -1.5q9 0 19 7.5t25 26.5l15 -6l-59 -103q-9 1 -20 2t-32 4q-40 4 -59.5 5.5t-36.5 1.5zM94 356l-68 77l188 67v-91q28 44 72.5 68.5t92.5 24.5q72 0 111 -42t39 -118v-256h1
l74 -86h-268l73 85v223q0 73 -20 99.5t-68 26.5q-31 0 -58 -15t-49 -44v-289l74 -86h-268l74 86v270z" />
    <glyph glyph-name="oacute" unicode="&#xf3;" horiz-adv-x="557" 
d="M245 681h126l-129 -129h-15zM30 223q0 117 75.5 198t197.5 81q97 0 157 -67t60 -168q0 -117 -75.5 -198t-197.5 -81q-97 0 -157 67t-60 168zM302 26q43 0 68 43.5t25 106.5q0 122 -41.5 205t-104.5 83q-46 0 -69 -36.5t-23 -113.5q0 -123 41 -205.5t104 -82.5z" />
    <glyph glyph-name="ograve" unicode="&#xf2;" horiz-adv-x="557" 
d="M288 681l18 -129h-15l-129 129h126zM30 223q0 117 75.5 198t197.5 81q97 0 157 -67t60 -168q0 -117 -75.5 -198t-197.5 -81q-97 0 -157 67t-60 168zM302 26q43 0 68 43.5t25 106.5q0 122 -41.5 205t-104.5 83q-46 0 -69 -36.5t-23 -113.5q0 -123 41 -205.5t104 -82.5z
" />
    <glyph glyph-name="ocircumflex" unicode="&#xf4;" horiz-adv-x="557" 
d="M275 625l-85 -73h-14l57 129h83l58 -129h-16zM30 223q0 117 75.5 198t197.5 81q97 0 157 -67t60 -168q0 -117 -75.5 -198t-197.5 -81q-97 0 -157 67t-60 168zM302 26q43 0 68 43.5t25 106.5q0 122 -41.5 205t-104.5 83q-46 0 -69 -36.5t-23 -113.5q0 -123 41 -205.5
t104 -82.5z" />
    <glyph glyph-name="odieresis" unicode="&#xf6;" horiz-adv-x="557" 
d="M236 625l-67 -77l-68 77l68 76zM441 625l-67 -77l-68 77l68 76zM30 223q0 117 75.5 198t197.5 81q97 0 157 -67t60 -168q0 -117 -75.5 -198t-197.5 -81q-97 0 -157 67t-60 168zM302 26q43 0 68 43.5t25 106.5q0 122 -41.5 205t-104.5 83q-46 0 -69 -36.5t-23 -113.5
q0 -123 41 -205.5t104 -82.5z" />
    <glyph glyph-name="otilde" unicode="&#xf5;" horiz-adv-x="557" 
d="M135 539l63 109l139 -13l44 34l15 -6l-59 -103l-148 13l-40 -43zM30 223q0 117 75.5 198t197.5 81q97 0 157 -67t60 -168q0 -117 -75.5 -198t-197.5 -81q-97 0 -157 67t-60 168zM302 26q43 0 68 43.5t25 106.5q0 122 -41.5 205t-104.5 83q-46 0 -69 -36.5t-23 -113.5
q0 -123 41 -205.5t104 -82.5z" />
    <glyph glyph-name="uacute" unicode="&#xfa;" horiz-adv-x="591" 
d="M273 681h126l-129 -129h-15zM80 404l-75 87h195v-307q0 -73 20 -99.5t68 -26.5q26 0 51 12.5t44 34.5v299l-74 87h194v-409l68 -82l-188 -6v80q-31 -43 -68.5 -63.5t-84.5 -20.5q-72 0 -111 42t-39 118v254z" />
    <glyph glyph-name="ugrave" unicode="&#xf9;" horiz-adv-x="591" 
d="M277 681l18 -129h-15l-129 129h126zM80 404l-75 87h195v-307q0 -73 20 -99.5t68 -26.5q26 0 51 12.5t44 34.5v299l-74 87h194v-409l68 -82l-188 -6v80q-31 -43 -68.5 -63.5t-84.5 -20.5q-72 0 -111 42t-39 118v254z" />
    <glyph glyph-name="ucircumflex" unicode="&#xfb;" horiz-adv-x="591" 
d="M268 625l-85 -73h-14l57 129h83l58 -129h-16zM80 404l-75 87h195v-307q0 -73 20 -99.5t68 -26.5q26 0 51 12.5t44 34.5v299l-74 87h194v-409l68 -82l-188 -6v80q-31 -43 -68.5 -63.5t-84.5 -20.5q-72 0 -111 42t-39 118v254z" />
    <glyph glyph-name="udieresis" unicode="&#xfc;" horiz-adv-x="591" 
d="M241 625l-67 -77l-68 77l68 76zM446 625l-67 -77l-68 77l68 76zM80 404l-75 87h195v-307q0 -73 20 -99.5t68 -26.5q26 0 51 12.5t44 34.5v299l-74 87h194v-409l68 -82l-188 -6v80q-31 -43 -68.5 -63.5t-84.5 -20.5q-72 0 -111 42t-39 118v254z" />
    <glyph glyph-name="dagger" unicode="&#x2020;" horiz-adv-x="390" 
d="M135 450h-39l-86 -74v114h152l-27 210h120l-27 -210h66l86 74v-114h-125v-88l-53 -442h-14l-53 442v88z" />
    <glyph glyph-name="degree" unicode="&#xb0;" horiz-adv-x="256" 
d="M231 703q0 -43 -30 -73t-73 -30t-73 30t-30 73t30 73t73 30t73 -30t30 -73zM186 703q0 23 -17.5 40.5t-40.5 17.5t-40.5 -17.5t-17.5 -40.5t17.5 -40.5t40.5 -17.5t40.5 17.5t17.5 40.5z" />
    <glyph glyph-name="cent" unicode="&#xa2;" horiz-adv-x="448" 
d="M304 550h105v-136h-5q-23 35 -49.5 58.5t-56.5 33.5l-43 -335q8 -2 16 -3t18 -1q44 0 82.5 28t50.5 62l11 -4q-21 -82 -73.5 -139.5t-120.5 -64.5l-14 -107h-36l10 107q-79 8 -126.5 74t-47.5 162q0 99 60 174t160 88l10 102h62zM242 515q-50 -3 -76 -39t-26 -100
q0 -69 18.5 -116t53.5 -71z" />
    <glyph glyph-name="sterling" unicode="&#xa3;" horiz-adv-x="557" 
d="M504 148h6l-16 -148h-486l41 44h3q42 3 61.5 62.5t19.5 173.5v30l-83 -2v48h83q2 42 19 86t44 78q30 37 69 56t86 19h120v-136h-4q-32 49 -71.5 75t-83.5 26q-38 0 -57.5 -20.5t-19.5 -60.5q0 -23 5.5 -46.5t28.5 -74.5h150v-43l-142 -3q-1 -48 -9 -86t-25 -67
q-15 -26 -37.5 -49t-74.5 -60v-2l288 15z" />
    <glyph glyph-name="section" unicode="&#xa7;" horiz-adv-x="600" 
d="M330 0h-66v271l4 43q-11 -5 -26.5 -8t-28.5 -3q-80 0 -135.5 53.5t-55.5 133.5q0 97 61.5 146t180.5 49l1 -1h39v1h138v-2h87l-68 -77h-1v-606h-66v641h-64v-641z" />
    <glyph glyph-name="bullet" unicode="&#x2022;" horiz-adv-x="347" 
d="M302 263l-128 -138l-129 138l129 139z" />
    <glyph glyph-name="paragraph" unicode="&#xb6;" horiz-adv-x="583" 
d="M247 -98q9 18 13 38.5t4 52.5v280l4 43q-11 -5 -26.5 -8t-28.5 -3q-80 0 -135.5 53.5t-55.5 133.5q0 96 61 145t181 48h265l-68 -77h-1v-608h-66v643h-64v-617q0 -45 -26.5 -82.5t-53.5 -43.5z" />
    <glyph glyph-name="germandbls" unicode="&#xdf;" horiz-adv-x="584" 
d="M94 86v341l-70 63h70q0 26 20.5 69t51.5 74q30 31 67 46.5t79 15.5q83 0 125 -33.5t42 -98.5q0 -37 -32 -85.5t-76 -86.5q8 -5 37.5 -23.5t48.5 -31.5q24 -18 42 -35.5t31 -35.5q14 -23 21.5 -47t7.5 -50q0 -83 -45.5 -127.5t-132.5 -44.5q-28 0 -60 1t-57 3l7 165h11
q24 -66 57.5 -100.5t71.5 -34.5q34 0 51 20.5t17 60.5q0 27 -21.5 58.5t-62.5 64.5q-32 27 -70.5 50.5t-59.5 30.5q62 76 84.5 126t22.5 108q0 51 -26.5 81.5t-68.5 30.5q-52 0 -77.5 -41t0.5 -99l14 -31v-490h-194z" />
    <glyph glyph-name="registered" unicode="&#xae;" horiz-adv-x="445" 
d="M222 818q85 0 144 -59t59 -143t-59 -143t-144 -59q-84 0 -143 59t-59 143t59 143t143 59zM222 791q-72 0 -123.5 -51.5t-51.5 -123.5t51.5 -123.5t123.5 -51.5t123.5 51.5t51.5 123.5q0 73 -51 124t-124 51zM298 535l36 -33h-69l-57 106l-16 -2v-68l26 -36h-96l25 36v161
l-25 37h82q47 0 75 -16t28 -45q0 -19 -14.5 -34t-39.5 -24zM192 618q28 1 46 15t18 37q0 27 -16 41t-48 14v-107z" />
    <glyph glyph-name="copyright" unicode="&#xa9;" horiz-adv-x="730" 
d="M365 661q132 0 225.5 -93.5t93.5 -225.5t-93.5 -225.5t-225.5 -93.5t-225.5 93.5t-93.5 225.5t93.5 225.5t225.5 93.5zM365 618q-114 0 -195 -81t-81 -195t81 -195t195 -81t195 81t81 195t-81 195t-195 81zM398 553h100v-131h-8q-17 45 -53.5 71t-82.5 26
q-44 0 -68.5 -35t-24.5 -94q0 -81 36 -131.5t98 -50.5q45 0 79.5 17.5t47.5 43.5l10 -6q-20 -57 -67.5 -94t-108.5 -37q-84 0 -136 56.5t-52 145.5q0 94 63.5 156.5t166.5 62.5z" />
    <glyph glyph-name="trademark" unicode="&#x2122;" horiz-adv-x="944" 
d="M122 783l-72 -102h-5v123h336v-123h-4l-72 103h-55v-299l41 -59h-155l40 59v298h-54zM636 420l-142 284v-224l44 -54h-113l42 54v266l-47 58h110l132 -275l120 275h116l-41 -45v-274l42 -59h-160l46 59v264l-144 -329h-5z" />
    <glyph glyph-name="acute" unicode="&#xb4;" horiz-adv-x="213" 
d="M57 681h126l-129 -129h-15z" />
    <glyph glyph-name="dieresis" unicode="&#xa8;" horiz-adv-x="410" 
d="M170 625l-67 -77l-68 77l68 76zM375 625l-67 -77l-68 77l68 76z" />
    <glyph glyph-name="notequal" unicode="&#x2260;" horiz-adv-x="454" 
d="M382 508h44l-72 -103h72v-72h-122l-92 -132h214v-72h-264l-73 -104h-44l73 104h-73v72h123l92 132h-215v72h265z" />
    <glyph glyph-name="AE" unicode="&#xc6;" horiz-adv-x="910" 
d="M880 219l5 -2l-11 -217h-501l60 106v108h-226l-81 -138l83 -76h-209l75 85l322 540l-77 61h198l-1 -1h338v-210h-6l-122 174h-164v-277h273v-40h-273v-296h173zM230 254h203v344l-4 3l-13 -26z" />
    <glyph glyph-name="Oslash" unicode="&#xd8;" horiz-adv-x="752" 
d="M601 630l54 60h67l-86 -96q37 -44 57 -102t20 -119q0 -168 -102 -276.5t-270 -108.5q-53 0 -101 18t-86 52l-57 -63h-67l90 100q-36 44 -55.5 101t-19.5 117q0 168 102 276.5t270 108.5q52 0 99 -17.5t85 -50.5zM346 655q-77 0 -118 -60t-41 -161q0 -61 9 -118.5
t27 -106.5l289 322q-32 61 -74 92.5t-92 31.5zM412 30q72 0 116.5 67t44.5 155q0 63 -10 121.5t-29 107.5l-290 -322q31 -63 74 -96t94 -33z" />
    <glyph glyph-name="infinity" unicode="&#x221e;" horiz-adv-x="556" 
d="M323 349q24 37 48 53t54 16q40 0 65.5 -36t25.5 -85q0 -63 -33 -105t-87 -42q-20 0 -37 5.5t-32 16.5q-8 5 -16 13t-35 39q-30 -47 -58.5 -63.5t-66.5 -16.5q-47 0 -79 38t-32 94q0 64 39.5 111t104.5 47q43 0 74.5 -18t64.5 -67zM494 291q0 34 -21 56t-58 22
q-30 0 -49.5 -9t-33.5 -28q3 -6 14.5 -32t18.5 -39q13 -23 27 -33.5t31 -10.5q32 0 51.5 21t19.5 53zM62 277q0 -38 26 -61t67 -23q36 0 65.5 14t45.5 39q-21 48 -27.5 59.5t-13.5 20.5q-14 18 -33 26.5t-45 8.5q-43 0 -64 -21t-21 -63z" />
    <glyph glyph-name="plusminus" unicode="&#xb1;" horiz-adv-x="518" 
d="M294 238v-143h184v-70h-438v70h175v143h-170v72h170v173l79 30v-203h179v-72h-179z" />
    <glyph glyph-name="lessequal" unicode="&#x2264;" horiz-adv-x="528" 
d="M482 137l-431 170v72l431 162v-72l-283 -115l283 -145v-72zM45 25v70h438v-70h-438z" />
    <glyph glyph-name="greaterequal" unicode="&#x2265;" horiz-adv-x="528" 
d="M477 379v-72l-431 -170v72l283 145l-283 115v72zM45 95h438v-70h-438v70z" />
    <glyph glyph-name="yen" unicode="&#xa5;" horiz-adv-x="729" 
d="M699 595l-103 -94l-158 -218h117v-50h-126v-50h126v-50h-126v-32l84 -101h-298l84 101v32h-131v49h131v51h-131v49h100l-147 207l-91 106h321l-85 -106h-1l118 -153l16 -23l131 178l-85 104h254z" />
    <glyph glyph-name="mu" unicode="&#x3bc;" horiz-adv-x="591" 
d="M503 82l68 -82l-188 -6v80q-31 -43 -68.5 -63.5t-84.5 -20.5q-10 0 -18.5 1.5t-17.5 5.5l6 -28v-183h-194l74 86v532l-75 87h195v-307q0 -73 20 -99.5t68 -26.5q26 0 51 12.5t44 34.5v299l-74 87h194v-409z" />
    <glyph glyph-name="partialdiff" unicode="&#x2202;" horiz-adv-x="518" 
d="M83 590h-7v113h129q64 0 117.5 -32t91.5 -94q32 -51 49.5 -115t17.5 -128q0 -161 -71 -254.5t-189 -93.5q-90 0 -140.5 62t-50.5 174q0 103 58 170t155 67q33 0 64.5 -16.5t60.5 -49.5q-7 133 -47 204.5t-105 71.5q-35 0 -69 -20t-64 -59zM257 430q-48 0 -73.5 -59
t-25.5 -167q0 -82 22.5 -133.5t61.5 -51.5q56 0 92.5 90t36.5 212v25.5t-1 15.5q-15 30 -48.5 49t-64.5 19z" />
    <glyph glyph-name="summation" unicode="&#x2211;" horiz-adv-x="644" 
d="M594 96h15l-15 -259h-551l258 379l-261 482h553v-210h-12l-110 174h-241l193 -357l-246 -368h339z" />
    <glyph glyph-name="product" unicode="&#x220f;" horiz-adv-x="734" 
d="M694 698l-74 -106v-655l74 -106h-273l74 106v719h-256v-719l74 -106h-273l74 106v655l-74 106h654z" />
    <glyph glyph-name="pi" unicode="&#x3c0;" horiz-adv-x="639" 
d="M477 134q0 -40 11.5 -60t34.5 -20q20 0 35.5 7t29.5 23l10 -12q-37 -49 -66.5 -66t-70.5 -17q-52 0 -78 31t-26 94v264h-129v-378h-176l84 53l9 325h-9q-38 0 -60.5 -15.5t-43.5 -54.5h-7l6 30q20 97 45 124.5t93 27.5h402v-112h-94v-244z" />
    <glyph glyph-name="integral" unicode="&#x222b;" horiz-adv-x="440" 
d="M335 783h120v-160h-7q-29 59 -61.5 92t-61.5 33q-32 0 -46 -33.5t-11 -105.5l22 -535q4 -107 -47 -186t-135 -79h-120v160h7q29 -59 61.5 -92t61.5 -33q32 0 46 34t11 105l-22 535q-4 107 47 186t135 79z" />
    <glyph glyph-name="ae" unicode="&#xe6;" horiz-adv-x="775" 
d="M476 490q17 6 36 9t40 3q90 0 141.5 -58t51.5 -160h-321q7 -87 49 -135t109 -48q50 0 90.5 22t52.5 54l15 -6q-35 -87 -93 -135t-133 -48q-56 0 -101.5 28.5t-73.5 80.5q-46 -51 -97 -79t-97 -28q-57 0 -88.5 29.5t-31.5 85.5q0 63 64 109.5t230 95.5q9 81 -13 114.5
t-80 33.5q-54 0 -99 -30t-72 -84h-6v146h427zM529 472q-48 0 -77.5 -45.5t-29.5 -105.5v-11h193q1 2 1 5v8q0 70 -23.5 109.5t-63.5 39.5zM314 281q-76 -24 -116.5 -61.5t-40.5 -81.5q0 -33 20 -51t55 -18q26 0 52 13.5t44 38.5q-9 25 -14 51.5t-5 52.5q0 13 1 27t4 29z" />
    <glyph glyph-name="oslash" unicode="&#xf8;" horiz-adv-x="563" 
d="M409 481l57 83h67l-79 -114q36 -32 55.5 -80t19.5 -103q0 -117 -75.5 -198t-197.5 -81q-28 0 -54 6t-49 18l-51 -74h-67l74 107q-33 33 -51.5 79.5t-18.5 98.5q0 117 75.5 198t197.5 81q26 0 50 -5t47 -16zM258 464q-46 0 -69 -36.5t-23 -113.5q0 -43 5.5 -82.5
t15.5 -72.5l166 240q-20 32 -44 48.5t-51 16.5zM311 26q43 0 68 43.5t25 106.5q0 45 -6.5 87t-18.5 78l-167 -243q20 -35 45.5 -53.5t53.5 -18.5z" />
    <glyph glyph-name="questiondown" unicode="&#xbf;" horiz-adv-x="504" 
d="M336 316l-85 93l85 92l86 -92zM428 -50l8 1l24 -171h-86q-163 0 -235.5 38t-72.5 117q0 40 22.5 74t69.5 63q34 22 91 46.5t65 28.5l12 108h24l18 -122q-66 -23 -108 -72.5t-42 -103.5q0 -69 20 -104.5t58 -35.5q48 0 79.5 31.5t52.5 101.5z" />
    <glyph glyph-name="exclamdown" unicode="&#xa1;" horiz-adv-x="217" 
d="M23 411l85 92l86 -92l-86 -93zM180 -180l-67 -46l-66 46l48 437h36z" />
    <glyph glyph-name="logicalnot" unicode="&#xac;" horiz-adv-x="558" 
d="M524 311v-44h1v-212h-65v186h-427v70h491z" />
    <glyph glyph-name="radical" unicode="&#x221a;" horiz-adv-x="527" 
d="M309 -99h-14l-194 457l-101 69l170 95l162 -417l135 739h60z" />
    <glyph glyph-name="florin" unicode="&#x192;" horiz-adv-x="600" 
d="M209 518q8 121 56 193t126 72h120v-160h-7q-29 59 -61.5 92t-61.5 33q-27 0 -39.5 -25.5t-17.5 -113.5l-8 -119h163v-41l-165 -4l-24 -371q-8 -121 -56 -193t-126 -72h-120v160h7q29 -59 61.5 -92t61.5 -33q27 0 39.5 25t17.5 114l29 460l-89 -2v49h92z" />
    <glyph glyph-name="approxequal" unicode="&#x2248;" horiz-adv-x="451" 
d="M45 290l63 106l239 -13l44 34l15 -6l-59 -100l-248 13l-40 -43zM45 118l63 106l239 -13l44 34l15 -6l-59 -100l-248 13l-40 -43z" />
    <glyph glyph-name="guillemotleft" unicode="&#xab;" horiz-adv-x="512" 
d="M280 474l10 -17l-222 -211h110l112 -218l-10 -10l-268 228zM501 474l10 -17l-222 -211h110l112 -218l-10 -10l-268 228z" />
    <glyph glyph-name="guillemotright" unicode="&#xbb;" horiz-adv-x="512" 
d="M17 18l-10 17l222 211h-110l-112 218l10 10l268 -228zM238 18l-10 17l222 211h-110l-112 218l10 10l268 -228z" />
    <glyph glyph-name="ellipsis" unicode="&#x2026;" horiz-adv-x="763" 
d="M196 66l-85 -92l-86 92l86 92zM467 66l-85 -92l-86 92l86 92zM738 66l-85 -92l-86 92l86 92z" />
    <glyph glyph-name="Agrave" unicode="&#xc0;" horiz-adv-x="730" 
d="M355 869l13 -129h-15l-129 129h131zM513 69l-61 145h-260l-54 -136l95 -78h-221l71 79l254 616h47l270 -628l75 -67h-308zM320 533l-112 -279h228z" />
    <glyph glyph-name="Atilde" unicode="&#xc3;" horiz-adv-x="727" 
d="M431 840q9 0 19 7.5t25 26.5l15 -6l-59 -101q-2 0 -61 5.5t-93 5.5q-8 0 -17 -9.5t-23 -33.5l-14 9l63 107q1 0 57 -5.5t88 -5.5zM647 67l75 -67h-308l92 69l-61 145h-260l-54 -136l95 -78h-221l71 79l254 616h47zM203 259h224l-114 274z" />
    <glyph glyph-name="Otilde" unicode="&#xd5;" horiz-adv-x="738" 
d="M276 773q-8 0 -17 -9.5t-23 -33.5l-14 9l63 107q1 0 57 -5.5t88 -5.5q9 0 19 7.5t25 26.5l15 -6l-59 -101q-2 0 -61 5.5t-93 5.5zM35 313q0 168 102 276.5t270 108.5q128 0 212 -95.5t84 -229.5q0 -168 -102 -276.5t-270 -108.5q-128 0 -212 95.5t-84 229.5zM402 30
q72 0 116.5 67t44.5 155q0 169 -64 286t-163 117q-77 0 -118 -60t-41 -161q0 -170 63.5 -287t161.5 -117z" />
    <glyph glyph-name="OE" unicode="&#x152;" horiz-adv-x="994" 
d="M632 649v-277h273v-40h-273v-296h179l132 177l11 -2l-11 -211h-612q-129 0 -212.5 90.5t-83.5 222.5q0 165 101.5 268.5t270.5 103.5h517v-204h-12l-110 168h-170zM402 36h99v612h-123q-95 0 -148 -72t-53 -180q0 -157 62.5 -258.5t162.5 -101.5z" />
    <glyph glyph-name="oe" unicode="&#x153;" horiz-adv-x="837" 
d="M505 252q11 -73 48 -112t95 -39q48 0 89 22t52 54l14 -6q-32 -85 -90 -134t-130 -49q-45 0 -83.5 21t-65.5 60q-36 -40 -83.5 -60.5t-104.5 -20.5q-95 0 -153 66.5t-58 168.5q0 117 73 198t191 81q49 0 89 -20t68 -57q31 38 73 57.5t91 19.5q87 0 137.5 -58.5
t50.5 -159.5h-303q0 -3 0.5 -8.5t0.5 -8.5q0 -2 -0.5 -7t-0.5 -8zM598 472q-43 0 -69.5 -44t-27.5 -108l1 -10h178q2 76 -20.5 119t-61.5 43zM298 26q41 0 65 43.5t24 106.5q0 123 -39.5 205.5t-99.5 82.5q-44 0 -65.5 -36.5t-21.5 -113.5q0 -123 38.5 -205.5t98.5 -82.5z
" />
    <glyph glyph-name="endash" unicode="&#x2013;" horiz-adv-x="500" 
d="M0 311h500v-70h-500v70z" />
    <glyph glyph-name="emdash" unicode="&#x2014;" horiz-adv-x="900" 
d="M0 311h900v-70h-900v70z" />
    <glyph glyph-name="quotedblleft" unicode="&#x201c;" horiz-adv-x="425" 
d="M111 429q-33 20 -57 48t-24 49q0 45 34.5 90t112.5 95l14 -10q-31 -26 -48 -52.5t-17 -51.5q0 -11 3.5 -20t25.5 -32l39 -31zM311 429q-33 20 -57 48t-24 49q0 45 34.5 90t112.5 95l14 -10q-31 -26 -48 -52.5t-17 -51.5q0 -11 3.5 -20t25.5 -32l39 -31z" />
    <glyph glyph-name="quotedblright" unicode="&#x201d;" horiz-adv-x="425" 
d="M113 711q33 -20 57 -48t24 -49q0 -45 -34.5 -90t-112.5 -95l-14 10q31 26 48 52.5t17 51.5q0 11 -3.5 20t-25.5 32l-39 31zM313 711q33 -20 57 -48t24 -49q0 -45 -34.5 -90t-112.5 -95l-14 10q31 26 48 52.5t17 51.5q0 11 -3.5 20t-25.5 32l-39 31z" />
    <glyph glyph-name="quoteleft" unicode="&#x2018;" horiz-adv-x="248" 
d="M111 429q-33 20 -57 48t-24 49q0 45 34.5 90t112.5 95l14 -10q-31 -26 -48 -52.5t-17 -51.5q0 -11 3.5 -20t25.5 -32l39 -31z" />
    <glyph glyph-name="quoteright" unicode="&#x2019;" horiz-adv-x="248" 
d="M113 711q33 -20 57 -48t24 -49q0 -45 -34.5 -90t-112.5 -95l-14 10q31 26 48 52.5t17 51.5q0 11 -3.5 20t-25.5 32l-39 31z" />
    <glyph glyph-name="divide" unicode="&#xf7;" horiz-adv-x="446" 
d="M307 437l-83 -91l-84 91l84 90zM23 311h400v-70h-400v70zM307 116l-83 -91l-84 91l84 90z" />
    <glyph glyph-name="lozenge" unicode="&#x25ca;" horiz-adv-x="628" 
d="M40 300l274 289l274 -289l-274 -289zM518 300l-204 218l-203 -218l203 -219z" />
    <glyph glyph-name="ydieresis" unicode="&#xff;" horiz-adv-x="535" 
d="M257 622l-67 -77l-68 77l68 76zM462 622l-67 -77l-68 77l68 76zM247 10l-181 399l-66 81h265l-73 -64l105 -258l12 -34l121 292l-73 64h178l-59 -62l-232 -557l72 -86h-216l88 90z" />
    <glyph glyph-name="Ydieresis" unicode="&#x178;" horiz-adv-x="689" 
d="M327 830l-77 -88l-77 88l77 87zM560 830l-76 -88l-78 88l78 87zM576 591l-167 -273v-217l84 -101h-298l84 101v180l-178 298l-91 106h321l-85 -106h-1l118 -189l16 -33l131 224l-85 104h254z" />
    <glyph glyph-name="fraction" unicode="&#x2044;" horiz-adv-x="470" 
d="M4 -33l451 752h48l-452 -752h-47z" />
    <glyph glyph-name="currency" unicode="&#xa4;" horiz-adv-x="466" 
d="M114 397l-64 61l30 32l65 -62q20 14 42 21.5t46 7.5q23 0 45 -7t41 -21l64 61l30 -32l-62 -59q15 -19 22.5 -42t7.5 -48t-8 -48.5t-23 -43.5l63 -60l-30 -32l-65 62q-18 -13 -39.5 -19.5t-45.5 -6.5q-23 0 -45.5 7t-41.5 20l-66 -63l-30 32l65 62q-15 19 -22.5 42
t-7.5 48q0 24 7.5 46.5t21.5 41.5zM340 309q0 44 -31.5 75t-75.5 31t-75 -31t-31 -75t31 -75t75 -31t75.5 31t31.5 75z" />
    <glyph glyph-name="guilsinglleft" unicode="&#x2039;" horiz-adv-x="296" 
d="M280 474l10 -10l-222 -218h110l112 -218l-10 -10l-268 228z" />
    <glyph glyph-name="guilsinglright" unicode="&#x203a;" horiz-adv-x="296" 
d="M16 18l-10 10l222 218h-110l-112 218l10 10l268 -228z" />
    <glyph glyph-name="daggerdbl" unicode="&#x2021;" horiz-adv-x="390" 
d="M228 450v-270h66l86 74v-114h-152l27 -210h-120l27 210h-66l-86 -74v114h152v270h-66l-86 -74v114h152l-27 210h120l-27 -210h66l86 74v-114h-152z" />
    <glyph glyph-name="periodcentered" unicode="&#xb7;" horiz-adv-x="181" 
d="M176 263l-85 -92l-86 92l86 93z" />
    <glyph glyph-name="quotesinglbase" unicode="&#x201a;" horiz-adv-x="227" 
d="M113 159q33 -20 57 -48t24 -49q0 -45 -34.5 -90t-112.5 -95l-14 10q31 26 48 52.5t17 51.5q0 11 -3.5 20t-25.5 32l-39 31z" />
    <glyph glyph-name="quotedblbase" unicode="&#x201e;" horiz-adv-x="427" 
d="M113 160q33 -20 57 -48t24 -49q0 -45 -34.5 -90t-112.5 -95l-14 10q31 26 48 52.5t17 51.5q0 11 -3.5 20t-25.5 32l-39 31zM313 160q33 -20 57 -48t24 -49q0 -45 -34.5 -90t-112.5 -95l-14 10q31 26 48 52.5t17 51.5q0 11 -3.5 20t-25.5 32l-39 31z" />
    <glyph glyph-name="perthousand" unicode="&#x2030;" horiz-adv-x="1131" 
d="M120 -33l471 752h51l-472 -752h-50zM33 482q0 86 50.5 147.5t129.5 61.5q63 0 103 -50.5t40 -124.5q0 -86 -50.5 -147.5t-130.5 -61.5q-63 0 -102.5 50.5t-39.5 124.5zM213 335q27 0 43.5 34t16.5 79q0 89 -27.5 152t-67.5 63q-30 0 -45 -28.5t-15 -84.5
q0 -90 27.5 -152.5t67.5 -62.5zM403 165q0 86 50 147.5t129 61.5q64 0 104 -50.5t40 -124.5q0 -86 -50.5 -147.5t-130.5 -61.5q-63 0 -102.5 50.5t-39.5 124.5zM776 165q0 86 50 147.5t129 61.5q63 0 103 -50.5t40 -124.5q0 -86 -50.5 -147.5t-129.5 -61.5
q-63 0 -102.5 50.5t-39.5 124.5zM582 18q27 0 44 34.5t17 78.5q0 89 -27.5 152t-67.5 63q-30 0 -45.5 -29t-15.5 -84q0 -89 27.5 -152t67.5 -63zM955 18q27 0 44 34.5t17 78.5q0 89 -27.5 152t-67.5 63q-30 0 -45.5 -29t-15.5 -84q0 -90 27.5 -152.5t67.5 -62.5z" />
    <glyph glyph-name="Acircumflex" unicode="&#xc2;" horiz-adv-x="730" 
d="M362 810l-89 -70h-15l62 129h83l63 -129h-15zM513 69l-61 145h-260l-54 -136l95 -78h-221l71 79l254 616h47l270 -628l75 -67h-308zM320 533l-112 -279h228z" />
    <glyph glyph-name="Ecircumflex" unicode="&#xca;" horiz-adv-x="592" 
d="M303 810l-89 -70h-15l62 129h83l63 -129h-15zM541 219l11 -2l-11 -217h-501l60 106v475l-60 104h482v-210h-12l-110 174h-170v-277h273v-45h-273v-291h179z" />
    <glyph glyph-name="Aacute" unicode="&#xc1;" horiz-adv-x="730" 
d="M359 869h131l-129 -129h-15zM513 69l-61 145h-260l-54 -136l95 -78h-221l71 79l254 616h47l270 -628l75 -67h-308zM320 533l-112 -279h228z" />
    <glyph glyph-name="Edieresis" unicode="&#xcb;" horiz-adv-x="592" 
d="M264 829l-76 -88l-78 88l78 87zM498 829l-76 -88l-78 88l78 87zM541 219l11 -2l-11 -217h-501l60 106v475l-60 104h482v-210h-12l-110 174h-170v-277h273v-45h-273v-291h179z" />
    <glyph glyph-name="Egrave" unicode="&#xc8;" horiz-adv-x="592" 
d="M329 869l13 -129h-15l-129 129h131zM541 219l11 -2l-11 -217h-501l60 106v475l-60 104h482v-210h-12l-110 174h-170v-277h273v-45h-273v-291h179z" />
    <glyph glyph-name="Iacute" unicode="&#xcd;" horiz-adv-x="358" 
d="M154 869h131l-129 -129h-15zM244 579v-473l74 -106h-278l74 106v473l-74 106h278z" />
    <glyph glyph-name="Icircumflex" unicode="&#xce;" horiz-adv-x="358" 
d="M182 810l-89 -70h-15l62 129h83l63 -129h-15zM244 579v-473l74 -106h-278l74 106v473l-74 106h278z" />
    <glyph glyph-name="Idieresis" unicode="&#xcf;" horiz-adv-x="446" 
d="M184 830l-78 -88l-76 88l76 87zM416 830l-76 -88l-78 88l78 87zM288 579v-473l74 -106h-278l74 106v473l-74 106h278z" />
    <glyph glyph-name="Igrave" unicode="&#xcc;" horiz-adv-x="358" 
d="M205 869l13 -129h-15l-129 129h131zM244 579v-473l74 -106h-278l74 106v473l-74 106h278z" />
    <glyph glyph-name="Oacute" unicode="&#xd3;" horiz-adv-x="738" 
d="M344 869h131l-129 -129h-15zM35 313q0 168 102 276.5t270 108.5q128 0 212 -95.5t84 -229.5q0 -168 -102 -276.5t-270 -108.5q-128 0 -212 95.5t-84 229.5zM402 30q72 0 116.5 67t44.5 155q0 169 -64 286t-163 117q-77 0 -118 -60t-41 -161q0 -170 63.5 -287t161.5 -117z
" />
    <glyph glyph-name="Ocircumflex" unicode="&#xd4;" horiz-adv-x="738" 
d="M367 810l-89 -70h-15l62 129h83l63 -129h-15zM35 313q0 168 102 276.5t270 108.5q128 0 212 -95.5t84 -229.5q0 -168 -102 -276.5t-270 -108.5q-128 0 -212 95.5t-84 229.5zM402 30q72 0 116.5 67t44.5 155q0 169 -64 286t-163 117q-77 0 -118 -60t-41 -161
q0 -170 63.5 -287t161.5 -117z" />
    <glyph glyph-name="Ograve" unicode="&#xd2;" horiz-adv-x="738" 
d="M339 869l13 -129h-15l-129 129h131zM35 313q0 168 102 276.5t270 108.5q128 0 212 -95.5t84 -229.5q0 -168 -102 -276.5t-270 -108.5q-128 0 -212 95.5t-84 229.5zM402 30q72 0 116.5 67t44.5 155q0 169 -64 286t-163 117q-77 0 -118 -60t-41 -161q0 -170 63.5 -287
t161.5 -117z" />
    <glyph glyph-name="Uacute" unicode="&#xda;" horiz-adv-x="763" 
d="M396 869h131l-129 -129h-15zM40 685h278l-74 -106v-343q0 -106 41.5 -154.5t148.5 -48.5q86 0 129 67.5t43 200.5v294l-77 90h199l-74 -90v-318q0 -59 -8 -97t-33 -84q-28 -52 -85 -81.5t-131 -29.5q-142 0 -213 60t-71 176v359z" />
    <glyph glyph-name="Ucircumflex" unicode="&#xdb;" horiz-adv-x="763" 
d="M413 810l-89 -70h-15l62 129h83l63 -129h-15zM40 685h278l-74 -106v-343q0 -106 41.5 -154.5t148.5 -48.5q86 0 129 67.5t43 200.5v294l-77 90h199l-74 -90v-318q0 -59 -8 -97t-33 -84q-28 -52 -85 -81.5t-131 -29.5q-142 0 -213 60t-71 176v359z" />
    <glyph glyph-name="Ugrave" unicode="&#xd9;" horiz-adv-x="763" 
d="M440 869l13 -129h-15l-129 129h131zM40 685h278l-74 -106v-343q0 -106 41.5 -154.5t148.5 -48.5q86 0 129 67.5t43 200.5v294l-77 90h199l-74 -90v-318q0 -59 -8 -97t-33 -84q-28 -52 -85 -81.5t-131 -29.5q-142 0 -213 60t-71 176v359z" />
    <glyph glyph-name="dotlessi" unicode="&#x131;" horiz-adv-x="318" 
d="M99 86v270l-68 77l188 67v-414l74 -86h-268z" />
    <glyph glyph-name="circumflex" unicode="&#x2c6;" horiz-adv-x="213" 
d="M108 625l-85 -73h-14l57 129h83l58 -129h-16z" />
    <glyph glyph-name="tilde" unicode="&#x2dc;" horiz-adv-x="361" 
d="M104 587q-8 0 -17 -9.5t-23 -33.5l-14 9l63 109q9 -1 19 -2t30 -4q37 -4 55.5 -5.5t34.5 -1.5q9 0 19 7.5t25 26.5l15 -6l-59 -103q-9 1 -20 2t-32 4q-40 4 -59.5 5.5t-36.5 1.5z" />
    <glyph glyph-name="macron" unicode="&#xaf;" horiz-adv-x="328" 
d="M48 595h232v-61h-232v61z" />
    <glyph glyph-name="dotaccent" unicode="&#x2d9;" horiz-adv-x="175" 
d="M158 625l-70 -81l-71 81l71 80z" />
    <glyph glyph-name="ring" unicode="&#x2da;" horiz-adv-x="206" 
d="M201 635q0 -40 -28.5 -69t-69.5 -29q-40 0 -69 29t-29 69q0 41 29 69.5t69 28.5q41 0 69.5 -28.5t28.5 -69.5zM167 635q0 26 -19 45t-45 19t-45 -19t-19 -45t19 -45t45 -19t45 19t19 45z" />
    <glyph glyph-name="cedilla" unicode="&#xb8;" horiz-adv-x="184" 
d="M27 -54l50 72h29l-18 -34q55 -21 70.5 -34t15.5 -28q0 -34 -26.5 -54.5t-67.5 -20.5q-25 0 -43.5 7t-38.5 24l11 21q16 -14 34.5 -21t38.5 -7q21 0 34 6.5t13 16.5q0 15 -26 28t-76 24z" />
    <glyph glyph-name="caron" unicode="&#x2c7;" horiz-adv-x="216" 
d="M9 681h14l85 -73l83 73h16l-58 -129h-83z" />
    <glyph glyph-name="Cacute" unicode="&#x106;" horiz-adv-x="651" 
d="M339 869h131l-129 -129h-15zM409 685h156v-203h-13q-30 76 -83.5 119t-121.5 43q-80 0 -123.5 -63.5t-43.5 -174.5q0 -138 55.5 -219.5t152.5 -81.5q70 0 123 29t90 87l15 -10q-44 -105 -119.5 -164t-169.5 -59q-133 0 -212.5 90.5t-79.5 240.5q0 73 28.5 142t80.5 121
q51 50 118.5 76.5t146.5 26.5z" />
    <glyph glyph-name="Ccaron" unicode="&#x10c;" horiz-adv-x="651" 
d="M257 869h15l89 -70l89 70h15l-63 -129h-83zM409 685h156v-203h-13q-30 76 -83.5 119t-121.5 43q-80 0 -123.5 -63.5t-43.5 -174.5q0 -138 55.5 -219.5t152.5 -81.5q70 0 123 29t90 87l15 -10q-44 -105 -119.5 -164t-169.5 -59q-133 0 -212.5 90.5t-79.5 240.5
q0 73 28.5 142t80.5 121q51 50 118.5 76.5t146.5 26.5z" />
    <glyph glyph-name="Ccircumflex" unicode="&#x108;" horiz-adv-x="651" 
d="M368 810l-89 -70h-15l62 129h83l63 -129h-15zM409 685h156v-203h-13q-30 76 -83.5 119t-121.5 43q-80 0 -123.5 -63.5t-43.5 -174.5q0 -138 55.5 -219.5t152.5 -81.5q70 0 123 29t90 87l15 -10q-44 -105 -119.5 -164t-169.5 -59q-133 0 -212.5 90.5t-79.5 240.5
q0 73 28.5 142t80.5 121q51 50 118.5 76.5t146.5 26.5z" />
    <glyph glyph-name="Dcaron" unicode="&#x10e;" horiz-adv-x="735" 
d="M244 869h15l89 -70l89 70h15l-63 -129h-83zM114 106v473l-74 106h266q187 0 290.5 -85.5t103.5 -227.5q0 -171 -111.5 -271.5t-299.5 -100.5h-249zM314 653h-70v-615h63q123 0 189 82t66 224q0 149 -64.5 229t-183.5 80z" />
    <glyph glyph-name="Ecaron" unicode="&#x11a;" horiz-adv-x="592" 
d="M204 869h15l89 -70l89 70h15l-63 -129h-83zM541 219l11 -2l-11 -217h-501l60 106v475l-60 104h482v-210h-12l-110 174h-170v-277h273v-45h-273v-291h179z" />
    <glyph glyph-name="Edotaccent" unicode="&#x116;" horiz-adv-x="592" 
d="M372 820l-70 -81l-71 81l71 80zM541 219l11 -2l-11 -217h-501l60 106v475l-60 104h482v-210h-12l-110 174h-170v-277h273v-45h-273v-291h179z" />
    <glyph glyph-name="IJ" unicode="&#x132;" horiz-adv-x="691" 
d="M244 579v-473l74 -106h-278l74 106v473l-74 106h278zM447 579l-74 106h278l-74 -106v-575q0 -44 -39 -91.5t-106 -88.5l-7 4q10 20 16 47.5t6 51.5v652z" />
    <glyph glyph-name="Lacute" unicode="&#x139;" horiz-adv-x="610" 
d="M161 869h131l-129 -129h-15zM438 45l132 171h10l-11 -216h-529l60 106v475l-60 104h266l-76 -105v-535h208z" />
    <glyph glyph-name="Lcaron" unicode="&#x13d;" horiz-adv-x="614" 
d="M479 711q33 -20 57 -48t24 -49q0 -45 -34.5 -90t-112.5 -95l-14 10q31 26 48 52.5t17 51.5q0 11 -3.5 20t-25.5 32l-39 31zM438 45l132 171h10l-11 -216h-529l60 106v475l-60 104h266l-76 -105v-535h208z" />
    <glyph glyph-name="Ldot" unicode="&#x13f;" horiz-adv-x="614" 
d="M438 45l132 171h10l-11 -216h-529l60 106v475l-60 104h266l-76 -105v-535h208zM457 472l85 -93l-85 -92l-86 92z" />
    <glyph glyph-name="Nacute" unicode="&#x143;" horiz-adv-x="756" 
d="M359 869h131l-129 -129h-15zM690 0h-155l-371 487v-401l86 -86h-214l74 93v465l-97 127h165l415 -555v469l-86 86h214l-74 -93v-534z" />
    <glyph glyph-name="Ncaron" unicode="&#x147;" horiz-adv-x="756" 
d="M276 869h15l89 -70l89 70h15l-63 -129h-83zM690 0h-155l-371 487v-401l86 -86h-214l74 93v465l-97 127h165l415 -555v469l-86 86h214l-74 -93v-534z" />
    <glyph glyph-name="Racute" unicode="&#x154;" horiz-adv-x="696" 
d="M299 869h131l-129 -129h-15zM425 339l155 -241l106 -98h-202q-103 176 -135 226.5t-57 85.5l-48 -4v-202l74 -106h-278l74 106v473l-74 106h253q143 0 215 -45t72 -132q0 -54 -41 -98t-114 -71zM244 341q83 2 136 44t53 111q0 79 -47.5 119t-141.5 40v-314z" />
    <glyph glyph-name="Rcaron" unicode="&#x158;" horiz-adv-x="696" 
d="M206 869h15l89 -70l89 70h15l-63 -129h-83zM425 339l155 -241l106 -98h-202q-103 176 -135 226.5t-57 85.5l-48 -4v-202l74 -106h-278l74 106v473l-74 106h253q143 0 215 -45t72 -132q0 -54 -41 -98t-114 -71zM244 341q83 2 136 44t53 111q0 79 -47.5 119t-141.5 40v-314
z" />
    <glyph glyph-name="Sacute" unicode="&#x15a;" horiz-adv-x="533" 
d="M251 869h131l-129 -129h-15zM246 -8q-51 0 -107.5 10t-91.5 26l-12 240h12q26 -103 91 -170.5t141 -67.5q44 0 74 28.5t30 71.5q0 32 -13 57.5t-40 46.5q-15 13 -36.5 25t-70.5 34q-57 26 -83 42t-45 33q-29 26 -43 58.5t-14 73.5q0 82 58.5 133.5t158.5 51.5h143l48 15
v-216l-12 1q-24 78 -78.5 123t-124.5 45q-43 0 -69 -24.5t-26 -66.5t30.5 -74.5t132.5 -80.5q57 -27 83.5 -42.5t46.5 -31.5q32 -27 48 -59t16 -70q0 -100 -66.5 -156t-180.5 -56z" />
    <glyph glyph-name="Tcaron" unicode="&#x164;" horiz-adv-x="660" 
d="M210 869h15l89 -70l89 70h15l-63 -129h-83zM155 649l-128 -184l-8 1v219h603v-219l-8 -1l-129 185h-100v-544l74 -106h-278l74 106v543h-100z" />
    <glyph glyph-name="Uring" unicode="&#x16e;" horiz-adv-x="763" 
d="M511 808q0 -40 -28.5 -69t-69.5 -29q-40 0 -69 29t-29 69q0 41 29 69.5t69 28.5q41 0 69.5 -28.5t28.5 -69.5zM477 808q0 26 -19 45t-45 19t-45 -19t-19 -45t19 -45t45 -19t45 19t19 45zM40 685h278l-74 -106v-343q0 -106 41.5 -154.5t148.5 -48.5q86 0 129 67.5
t43 200.5v294l-77 90h199l-74 -90v-318q0 -59 -8 -97t-33 -84q-28 -52 -85 -81.5t-131 -29.5q-142 0 -213 60t-71 176v359z" />
    <glyph glyph-name="Wacute" unicode="&#x1e82;" horiz-adv-x="1005" 
d="M507 869h131l-129 -129h-15zM564 624l155 -439l12 -44l150 457l-86 87h209l-68 -86l-214 -611h-61l-145 389l-142 -389h-61l-248 638l-52 59h273l-80 -61l164 -439l10 -37l114 288l-72 192l-50 57h273z" />
    <glyph glyph-name="Wcircumflex" unicode="&#x174;" horiz-adv-x="1005" 
d="M512 810l-89 -70h-15l62 129h83l63 -129h-15zM564 624l155 -439l12 -44l150 457l-86 87h209l-68 -86l-214 -611h-61l-145 389l-142 -389h-61l-248 638l-52 59h273l-80 -61l164 -439l10 -37l114 288l-72 192l-50 57h273z" />
    <glyph glyph-name="Wdieresis" unicode="&#x1e84;" horiz-adv-x="1005" 
d="M467 829l-76 -88l-78 88l78 87zM701 829l-76 -88l-78 88l78 87zM564 624l155 -439l12 -44l150 457l-86 87h209l-68 -86l-214 -611h-61l-145 389l-142 -389h-61l-248 638l-52 59h273l-80 -61l164 -439l10 -37l114 288l-72 192l-50 57h273z" />
    <glyph glyph-name="Wgrave" unicode="&#x1e80;" horiz-adv-x="1005" 
d="M514 869l13 -129h-15l-129 129h131zM564 624l155 -439l12 -44l150 457l-86 87h209l-68 -86l-214 -611h-61l-145 389l-142 -389h-61l-248 638l-52 59h273l-80 -61l164 -439l10 -37l114 288l-72 192l-50 57h273z" />
    <glyph glyph-name="Ycircumflex" unicode="&#x176;" horiz-adv-x="689" 
d="M376 810l-89 -70h-15l62 129h83l63 -129h-15zM576 591l-167 -273v-217l84 -101h-298l84 101v180l-178 298l-91 106h321l-85 -106h-1l118 -189l16 -33l131 224l-85 104h254z" />
    <glyph glyph-name="Ygrave" unicode="&#x1ef2;" horiz-adv-x="689" 
d="M377 869l13 -129h-15l-129 129h131zM576 591l-167 -273v-217l84 -101h-298l84 101v180l-178 298l-91 106h321l-85 -106h-1l118 -189l16 -33l131 224l-85 104h254z" />
    <glyph glyph-name="Zacute" unicode="&#x179;" horiz-adv-x="668" 
d="M305 869h126l-129 -129h-15zM615 685l7 -14l-430 -635h284l139 179h8l-11 -215h-575l-7 12l425 637h-239l-134 -181h-8l6 227l106 -10h429z" />
    <glyph glyph-name="Zdotaccent" unicode="&#x17b;" horiz-adv-x="668" 
d="M402 820l-70 -81l-71 81l71 80zM615 685l7 -14l-430 -635h284l139 179h8l-11 -215h-575l-7 12l425 637h-239l-134 -181h-8l6 227l106 -10h429z" />
    <glyph glyph-name="cacute" unicode="&#x107;" horiz-adv-x="468" 
d="M259 681h126l-129 -129h-15zM294 490h120v-136h-5q-33 50 -72 75.5t-82 25.5q-53 0 -81.5 -36.5t-28.5 -102.5q0 -102 39 -155.5t110 -53.5q44 0 82.5 28t50.5 62l11 -4q-23 -89 -80.5 -147t-132.5 -58q-88 0 -141.5 67t-53.5 170q0 114 71.5 189.5t192.5 75.5z" />
    <glyph glyph-name="ccaron" unicode="&#x10d;" horiz-adv-x="468" 
d="M160 681h14l85 -73l83 73h16l-58 -129h-83zM294 490h120v-136h-5q-33 50 -72 75.5t-82 25.5q-53 0 -81.5 -36.5t-28.5 -102.5q0 -102 39 -155.5t110 -53.5q44 0 82.5 28t50.5 62l11 -4q-23 -89 -80.5 -147t-132.5 -58q-88 0 -141.5 67t-53.5 170q0 114 71.5 189.5
t192.5 75.5z" />
    <glyph glyph-name="ccircumflex" unicode="&#x109;" horiz-adv-x="468" 
d="M255 625l-85 -73h-14l57 129h83l58 -129h-16zM294 490h120v-136h-5q-33 50 -72 75.5t-82 25.5q-53 0 -81.5 -36.5t-28.5 -102.5q0 -102 39 -155.5t110 -53.5q44 0 82.5 28t50.5 62l11 -4q-23 -89 -80.5 -147t-132.5 -58q-88 0 -141.5 67t-53.5 170q0 114 71.5 189.5
t192.5 75.5z" />
    <glyph glyph-name="cdotaccent" unicode="&#x10b;" horiz-adv-x="468" 
d="M325 627l-70 -81l-71 81l71 80zM294 490h120v-136h-5q-33 50 -72 75.5t-82 25.5q-53 0 -81.5 -36.5t-28.5 -102.5q0 -102 39 -155.5t110 -53.5q44 0 82.5 28t50.5 62l11 -4q-23 -89 -80.5 -147t-132.5 -58q-88 0 -141.5 67t-53.5 170q0 114 71.5 189.5t192.5 75.5z" />
    <glyph glyph-name="dcaron" unicode="&#x10f;" horiz-adv-x="758" 
d="M733 614q0 -27 -12.5 -52t-37.5 -47q-21 -20 -50 -36t-47 -20l-14 10q45 25 56.5 40t11.5 34q0 8 -2.5 15t-7.5 14q-4 6 -12 13.5t-10 9.5l-39 31l83 85q33 -20 57 -48t24 -49zM503 70l74 -70l-194 -9v98q-29 -50 -67 -74.5t-86 -24.5q-89 0 -142 66t-53 169
q0 115 72 190t192 75h84v86l-68 77l188 57v-640zM154 316q0 -104 40.5 -160t113.5 -56q23 0 40.5 6t34.5 19v269q-28 30 -59 45.5t-64 15.5q-52 0 -79 -36t-27 -103z" />
    <glyph glyph-name="ecaron" unicode="&#x11b;" horiz-adv-x="496" 
d="M160 681h14l85 -73l83 73h16l-58 -129h-83zM30 225q0 115 67.5 196t175.5 81q90 0 141.5 -58t51.5 -160h-321q7 -87 49 -135t109 -48q50 0 90.5 22t52.5 54l15 -6q-35 -87 -93 -135t-133 -48q-90 0 -147.5 68.5t-57.5 168.5zM250 472q-48 0 -77.5 -45.5t-29.5 -105.5v-11
h193q1 2 1 5v8q0 70 -23.5 109.5t-63.5 39.5z" />
    <glyph glyph-name="edotaccent" unicode="&#x117;" horiz-adv-x="496" 
d="M335 627l-70 -81l-71 81l71 80zM30 225q0 115 67.5 196t175.5 81q90 0 141.5 -58t51.5 -160h-321q7 -87 49 -135t109 -48q50 0 90.5 22t52.5 54l15 -6q-35 -87 -93 -135t-133 -48q-90 0 -147.5 68.5t-57.5 168.5zM250 472q-48 0 -77.5 -45.5t-29.5 -105.5v-11h193
q1 2 1 5v8q0 70 -23.5 109.5t-63.5 39.5z" />
    <glyph glyph-name="ij" unicode="&#x133;" horiz-adv-x="575" 
d="M241 639l-85 -93l-86 93l86 92zM545 639l-85 -93l-86 93l86 92zM99 86v270l-68 77l188 67v-414l74 -86h-268zM403 356l-68 77l188 67v-427h1v-138q0 -23 -12 -45.5t-37 -46.5q-14 -13 -43.5 -36t-38.5 -32l-7 3q8 12 12 30.5t5 44.5v503z" />
    <glyph glyph-name="lacute" unicode="&#x13a;" horiz-adv-x="308" 
d="M125 869h126l-129 -129h-15zM288 0h-268l74 86v354l-68 77l68 21v38l-68 77l188 57v-624z" />
    <glyph glyph-name="lcaron" unicode="&#x13e;" horiz-adv-x="464" 
d="M439 614q0 -27 -12.5 -52t-37.5 -47q-21 -20 -50 -36t-47 -20l-14 10q45 25 56.5 40t11.5 34q0 8 -2.5 15t-7.5 14q-4 6 -12 13.5t-10 9.5l-39 31l83 85q33 -20 57 -48t24 -49zM288 0h-268l74 86v354l-68 77l68 21v38l-68 77l188 57v-624z" />
    <glyph glyph-name="ldot" unicode="&#x140;" horiz-adv-x="437" 
d="M288 0h-268l74 86v354l-68 77l68 21v38l-68 77l188 57v-624zM456 304l-85 -92l-86 92l86 93z" />
    <glyph glyph-name="nacute" unicode="&#x144;" horiz-adv-x="624" 
d="M308 681h126l-129 -129h-15zM94 356l-68 77l188 67v-91q28 44 72.5 68.5t92.5 24.5q72 0 111 -42t39 -118v-256l75 -86h-268l73 85v223q0 73 -20 99.5t-68 26.5q-31 0 -58 -15t-49 -44v-289l74 -86h-268l74 86v270z" />
    <glyph glyph-name="ncaron" unicode="&#x148;" horiz-adv-x="624" 
d="M216 681h14l85 -73l83 73h16l-58 -129h-83zM94 356l-68 77l188 67v-91q28 44 72.5 68.5t92.5 24.5q72 0 111 -42t39 -118v-256h1l74 -86h-268l73 85v223q0 73 -20 99.5t-68 26.5q-31 0 -58 -15t-49 -44v-289l74 -86h-268l74 86v270z" />
    <glyph glyph-name="racute" unicode="&#x155;" horiz-adv-x="460" 
d="M359 681l-129 -129h-15l18 129h126zM31 490h414v-177h-8q-28 67 -67 103.5t-82 36.5q-29 0 -44.5 -13t-20.5 -43q-2 -13 -3 -31.5t-1 -64.5v-215l93 -86h-287l74 86v327z" />
    <glyph glyph-name="rcaron" unicode="&#x159;" horiz-adv-x="460" 
d="M299 552h-83l-57 129h14l85 -73l83 73h16zM31 490h414v-177h-8q-28 67 -67 103.5t-82 36.5q-29 0 -44.5 -13t-20.5 -43q-2 -13 -3 -31.5t-1 -64.5v-215l93 -86h-287l74 86v327z" />
    <glyph glyph-name="sacute" unicode="&#x15b;" horiz-adv-x="411" 
d="M204 681h126l-129 -129h-15zM190 -10q-44 0 -87.5 6t-68.5 17l-9 176h8q20 -67 74 -114t113 -47q35 0 55 17t20 48q0 27 -20 46.5t-87 43.5q-49 17 -72 29t-39 26q-24 21 -35.5 49t-11.5 64q0 59 47 99t120 40h110l37 21v-166l-6 1q-26 48 -72.5 80t-87.5 32
q-31 0 -48.5 -18t-17.5 -48q0 -24 20 -41t88 -39q49 -17 72.5 -28.5t40.5 -23.5q27 -21 40 -48t13 -61q0 -72 -58 -116.5t-138 -44.5z" />
    <glyph glyph-name="tcaron" unicode="&#x165;" horiz-adv-x="540" 
d="M510 714q0 -27 -12.5 -52t-37.5 -47q-21 -20 -50 -36t-47 -20l-14 10q45 25 56.5 40t11.5 34q0 8 -2.5 15t-7.5 14q-4 6 -12 13.5t-10 9.5l-39 31l83 85q33 -20 57 -48t24 -49zM10 490l186 142v-142h192l-22 -54h-170v-246q0 -69 17.5 -95.5t63.5 -26.5q30 0 57 15.5
t41 42.5l12 -16q-38 -64 -81.5 -93t-101.5 -29q-61 0 -94.5 39.5t-33.5 114.5v285z" />
    <glyph glyph-name="uring" unicode="&#x16f;" horiz-adv-x="591" 
d="M369 635q0 -37 -26 -63t-63 -26t-63 26t-26 63t26 63t63 26t63 -26t26 -63zM341 635q0 26 -17.5 43.5t-43.5 17.5q-25 0 -43 -17.5t-18 -43.5q0 -25 18 -43t43 -18q26 0 43.5 18t17.5 43zM80 404l-75 87h195v-307q0 -73 20 -99.5t68 -26.5q26 0 51 12.5t44 34.5v299
l-74 87h194v-409l68 -82l-188 -6v80q-31 -43 -68.5 -63.5t-84.5 -20.5q-72 0 -111 42t-39 118v254z" />
    <glyph glyph-name="wacute" unicode="&#x1e83;" horiz-adv-x="823" 
d="M418 681h126l-129 -129h-15zM278 -22h-22l-190 431l-66 81h265l-73 -64l105 -258l12 -34l89 215l-26 60l-66 81h264l-72 -64l104 -258l12 -22l108 280l-72 64h178l-59 -62l-185 -450h-22l-142 322z" />
    <glyph glyph-name="wcircumflex" unicode="&#x175;" horiz-adv-x="823" 
d="M423 625l-80 -73h-14l52 129h83l53 -129h-16zM278 -22h-22l-190 431l-66 81h265l-73 -64l105 -258l12 -34l89 215l-26 60l-66 81h264l-72 -64l104 -258l12 -22l108 280l-72 64h178l-59 -62l-185 -450h-22l-142 322z" />
    <glyph glyph-name="wdieresis" unicode="&#x1e85;" horiz-adv-x="823" 
d="M406 622l-67 -77l-68 77l68 76zM611 622l-67 -77l-68 77l68 76zM278 -22h-22l-190 431l-66 81h265l-73 -64l105 -258l12 -34l89 215l-26 60l-66 81h264l-72 -64l104 -258l12 -22l108 280l-72 64h178l-59 -62l-185 -450h-22l-142 322z" />
    <glyph glyph-name="wgrave" unicode="&#x1e81;" horiz-adv-x="823" 
d="M458 681l18 -129h-15l-129 129h126zM278 -22h-22l-190 431l-66 81h265l-73 -64l105 -258l12 -34l89 215l-26 60l-66 81h264l-72 -64l104 -258l12 -22l108 280l-72 64h178l-59 -62l-185 -450h-22l-142 322z" />
    <glyph glyph-name="ycircumflex" unicode="&#x177;" horiz-adv-x="535" 
d="M305 625l-85 -73h-14l57 129h83l58 -129h-16zM247 10l-181 399l-66 81h265l-73 -64l105 -258l12 -34l121 292l-73 64h178l-59 -62l-233 -557l72 -86h-215l88 90z" />
    <glyph glyph-name="ygrave" unicode="&#x1ef3;" horiz-adv-x="535" 
d="M176 681h126l18 -129h-15zM247 10l-181 399l-66 81h265l-73 -64l105 -258l12 -34l121 292l-73 64h178l-59 -62l-233 -557l72 -86h-215l88 90z" />
    <glyph glyph-name="zacute" unicode="&#x17a;" horiz-adv-x="507" 
d="M257 681h126l-129 -129h-15zM147 490h336l-301 -454h181l124 180l-18 -201v-15h-449l301 454h-155l-105 -158v212z" />
    <glyph glyph-name="zdotaccent" unicode="&#x17c;" horiz-adv-x="507" 
d="M340 625l-70 -81l-71 81l71 80zM147 490h336l-301 -454h181l124 180l-18 -201v-15h-449l301 454h-155l-105 -158v212z" />
    <glyph glyph-name="r.ss01" horiz-adv-x="415" 
d="M94 356l-68 77l188 67v-86q48 41 91 60.5t95 26.5v-173h-7q-19 38 -49 60t-62 22q-21 0 -39 -10.5t-29 -29.5v-290l86 -80h-280l74 80v276z" />
    <glyph glyph-name="racute.ss01" horiz-adv-x="421" 
d="M344 681l-129 -129h-15l18 129h126zM94 356l-68 77l188 67v-94q41 43 84.5 65t99.5 30v-173h-7q-20 38 -46.5 60t-52.5 22q-25 0 -47 -13.5t-31 -34.5v-282l86 -80h-280l74 80v276z" />
    <glyph glyph-name="rcaron.ss01" horiz-adv-x="421" 
d="M272 552h-83l-57 129h14l85 -73l83 73h16zM94 356l-68 77l188 67v-94q41 43 84.5 65t99.5 30v-173h-7q-20 38 -46.5 60t-52.5 22q-25 0 -47 -13.5t-31 -34.5v-282l86 -80h-280l74 80v276z" />
    <glyph glyph-name="f_f" horiz-adv-x="678" 
d="M718 490l-22 -54h-170v-351l94 -85h-288l74 86v350h-197v-359l76 -77h-270l74 86v341l-70 63h75q0 27 19.5 69.5t48.5 73.5q30 31 66.5 46.5t78.5 15.5h83v-136h-7q-23 50 -52 75.5t-63 25.5q-38 0 -57.5 -20.5t-19.5 -60.5q0 -20 4.5 -43.5t13.5 -45.5h202
q0 27 19.5 69.5t48.5 73.5q30 31 66.5 46.5t78.5 15.5h83v-136h-7q-23 50 -52 75.5t-63 25.5q-38 0 -57.5 -20.5t-19.5 -60.5q0 -20 4.5 -43.5t13.5 -45.5h192z" />
    <glyph glyph-name="f_f_l" horiz-adv-x="933" 
d="M913 0h-264l70 86v350h-193v-352l64 -84h-248l64 86v350h-197v-351l72 -85h-266l74 85v342l-70 63h75q0 27 19.5 69.5t48.5 73.5q30 31 66.5 46.5t78.5 15.5h83v-136h-7q-23 50 -52 75.5t-63 25.5q-38 0 -57.5 -20.5t-19.5 -60.5q0 -20 4.5 -43.5t13.5 -45.5h202
q0 27 19.5 69.5t48.5 73.5q30 31 66.5 46.5t78.5 15.5h183l32 15v-624zM526 490h192l1 -2v100q-30 35 -64 53.5t-70 18.5q-38 0 -57.5 -20.5t-19.5 -60.5q0 -20 4.5 -43.5t13.5 -45.5z" />
    <glyph glyph-name="uni0066006C" unicode="&#xfb02;" horiz-adv-x="616" 
d="M490 695l32 15v-624l74 -86h-264l70 86v350h-193v-352l64 -84h-258l74 86v341l-70 63h75q0 27 19.5 69.5t48.5 73.5q30 31 66.5 46.5t78.5 15.5h183zM209 490h192l1 -2v100q-30 35 -64 53.5t-70 18.5q-38 0 -57.5 -20.5t-19.5 -60.5q0 -20 4.5 -43.5t13.5 -45.5z" />
    <glyph glyph-name="Lambda" unicode="&#x39b;" horiz-adv-x="683" 
d="M485 61l-174 439l-13 47l-169 -461l85 -86h-209l70 89l239 616h48l264 -646l52 -59h-273z" />
    <glyph glyph-name="zero.osf" horiz-adv-x="597" 
d="M120 454q40 43 92.5 65.5t115.5 22.5q102 0 166 -73t64 -181q0 -58 -21.5 -114t-59.5 -98q-40 -43 -92.5 -65.5t-115.5 -22.5q-101 0 -165.5 73.5t-64.5 180.5q0 58 21.5 114t59.5 98zM328 28q48 0 78 49.5t30 113.5q0 129 -48 220t-118 91q-52 0 -79 -42.5t-27 -120.5
q0 -130 47 -220.5t117 -90.5z" />
    <glyph glyph-name="one.osf" horiz-adv-x="382" 
d="M133 66v265l-97 -8l-1 2l218 223v-482l94 -66h-303z" />
    <glyph glyph-name="two.osf" horiz-adv-x="523" 
d="M493 119l-12 -119h-438l-8 33q4 3 49 37t75 61q35 30 60.5 59.5t44.5 58.5q22 37 33.5 74.5t11.5 75.5q0 50 -30 80t-80 30q-47 0 -81 -33.5t-65 -112.5h-5v173h136q116 0 188.5 -42t72.5 -113q0 -26 -16 -54t-49 -60q-20 -18 -46 -38t-60 -43q-26 -17 -66.5 -42
t-47.5 -30l1 -3l62 5z" />
    <glyph glyph-name="three.osf" horiz-adv-x="507" 
d="M457 127q0 -48 -44 -88t-129 -69q-57 -20 -125 -32.5t-116 -12.5l-8 25q108 0 186 39t78 104q0 55 -40 88.5t-129 50.5q-2 0 -5 -1t-8 -2q-8 -2 -11.5 -2.5t-6.5 -1.5l-2 17l33 12q106 37 144 71.5t38 76.5q0 48 -33.5 77t-88.5 29q-41 0 -72 -30t-64 -112h-5v170h154
q118 0 181.5 -30.5t63.5 -89.5q0 -48 -51 -85.5t-163 -70.5q109 -11 166 -45t57 -88z" />
    <glyph glyph-name="four.osf" horiz-adv-x="568" 
d="M281 157l119 146v-258h128v-46h-128v-74h-120v74h-245l241 537h146l-289 -491h148v112z" />
    <glyph glyph-name="five.osf" horiz-adv-x="481" 
d="M420 536l-26 -120h-280l-18 -120l36 19q24 10 49.5 15.5t51.5 5.5q80 0 139 -52.5t59 -130.5q0 -102 -72 -157t-204 -55h-120q1 52 2 95.5t2 76.5h7q11 -27 27 -50.5t37 -44.5q24 -24 49.5 -36.5t51.5 -12.5q54 0 76 33.5t22 109.5q0 95 -28 139.5t-85 44.5q-19 0 -46 -9
t-59 -25l-3 -22l-36 4l36 292h332z" />
    <glyph glyph-name="six.osf" horiz-adv-x="503" 
d="M239 -12q-86 0 -142.5 52t-56.5 133q0 135 102 246t289 184l6 -19q-111 -50 -173.5 -114t-86.5 -151q25 20 54 31t55 11q78 0 127.5 -48.5t49.5 -128.5q0 -78 -64.5 -137t-159.5 -59zM345 163q0 68 -32.5 112.5t-75.5 44.5q-22 0 -35.5 -5.5t-30.5 -20.5
q-5 -22 -7.5 -47.5t-2.5 -54.5q0 -84 25 -129t73 -45q39 0 62.5 44t23.5 101z" />
    <glyph glyph-name="seven.osf" horiz-adv-x="483" 
d="M343 416h-255l-53 -73v193h428l-344 -635l-34 16z" />
    <glyph glyph-name="eight.osf" horiz-adv-x="495" 
d="M89 361q-15 21 -22 43t-7 49q0 72 57.5 114.5t144.5 42.5q65 0 111 -33t46 -87q0 -39 -21.5 -70.5t-72.5 -62.5q82 -54 107 -93.5t25 -90.5q0 -85 -69.5 -136.5t-162.5 -51.5q-82 0 -135.5 41t-53.5 105q0 29 9.5 53.5t28.5 45.5q11 13 26 24.5t59 39.5q-43 37 -53 47
t-17 20zM149 487q0 -22 14 -40t46 -36q17 -9 49.5 -23.5t43.5 -19.5q33 21 48.5 48t15.5 62q0 52 -29.5 79.5t-83.5 27.5q-45 0 -74.5 -26.5t-29.5 -71.5zM333 202q-11 13 -27.5 24.5t-40.5 22.5q-15 7 -42 17.5t-36 14.5q-44 -25 -71 -64t-27 -82q0 -56 36.5 -90.5
t100.5 -34.5q62 0 98 30.5t36 84.5q0 23 -6.5 42.5t-20.5 34.5z" />
    <glyph glyph-name="nine.osf" horiz-adv-x="497" 
d="M264 541q88 0 143.5 -48.5t55.5 -127.5q0 -137 -104 -252.5t-287 -187.5l-6 19q111 50 173.5 114t86.5 151q-27 -20 -55.5 -30.5t-53.5 -10.5q-78 0 -127.5 48.5t-49.5 128.5q0 78 64.5 137t159.5 59zM158 365q0 -67 32.5 -112t75.5 -45q22 0 35.5 5.5t30.5 20.5
q5 26 7.5 51.5t2.5 50.5q0 85 -25 130t-73 45q-39 0 -62.5 -44.5t-23.5 -101.5z" />
    <glyph glyph-name="zero.osf.zero" horiz-adv-x="597" 
d="M39 242q0 58 21.5 114t59.5 98q40 43 92.5 65.5t115.5 22.5q102 0 166 -73t64 -181q0 -58 -21.5 -114t-59.5 -98q-40 -43 -92.5 -65.5t-115.5 -22.5q-101 0 -165.5 73.5t-64.5 180.5zM269 502q-52 0 -79 -42.5t-27 -120.5q0 -53 9 -103.5t26 -91.5l186 274
q-23 41 -52.5 62.5t-62.5 21.5zM327 28q48 0 78 49.5t30 113.5q0 54 -9 104t-27 92l-186 -274q23 -41 52 -63t62 -22z" />
    <glyph glyph-name="zero.zero" horiz-adv-x="555" 
d="M249 -14q-94 0 -153.5 81t-59.5 201q0 138 75 236t193 98q95 0 154 -81t59 -201q0 -138 -75 -236t-193 -98zM251 557q-45 0 -68 -46.5t-23 -133.5q0 -63 9 -122.5t25 -107.5l149 330q-19 39 -42.5 59.5t-49.5 20.5zM301 31q41 0 66.5 54.5t25.5 125.5q0 64 -9 123
t-26 107l-149 -330q19 -39 42.5 -59.5t49.5 -20.5z" />
    <glyph glyph-name="oneeighth" unicode="&#x215b;" horiz-adv-x="766" 
d="M163 -33l451 752h48l-452 -752h-47zM131 339v228l-68 -23l-1 1l153 142v-348l67 -42h-213zM743 312q0 -25 -15 -44.5t-51 -40.5q58 -35 75.5 -60t17.5 -57q0 -54 -49 -87t-112 -33q-60 0 -98 26t-38 67q0 28 15.5 50t71.5 54q-48 37 -59 56.5t-11 44.5q0 45 40 72.5
t99 27.5q45 0 79.5 -21.5t34.5 -54.5zM696 304q0 31 -20.5 48.5t-52.5 17.5q-31 0 -50.5 -16.5t-19.5 -43.5q0 -14 10.5 -26t33.5 -23q11 -6 34 -15t30 -12q18 12 26.5 28.5t8.5 41.5zM520 86q0 -35 24 -56.5t66 -21.5t66.5 19t24.5 52q0 22 -10 38.5t-32 28.5
q-16 10 -47 21.5t-32 11.5q-27 -16 -43.5 -41t-16.5 -52z" />
    <glyph glyph-name="threeeighths" unicode="&#x215c;" horiz-adv-x="788" 
d="M158 -33l451 752h48l-452 -752h-47zM340 425q0 -31 -32 -56.5t-93 -44.5q-41 -13 -87.5 -20.5t-79.5 -7.5l-5 19q78 0 131.5 23.5t53.5 64.5q0 35 -28 56t-90 32q-3 0 -10.5 -1.5t-11.5 -2.5l-2 11l24 7q76 25 102 46.5t26 47.5q0 30 -23.5 48t-62.5 18q-29 0 -50.5 -18
t-45.5 -70h-4v108h110q83 0 127.5 -19.5t44.5 -57.5q0 -30 -37 -53.5t-121 -45.5q80 -6 122 -27t42 -57zM737 312q0 -25 -15 -44.5t-51 -40.5q58 -35 75.5 -60t17.5 -57q0 -54 -49 -87t-112 -33q-60 0 -98 26t-38 67q0 28 15.5 50t71.5 54q-48 37 -59 56.5t-11 44.5
q0 45 40 72.5t99 27.5q45 0 79.5 -21.5t34.5 -54.5zM690 304q0 31 -20.5 48.5t-52.5 17.5q-31 0 -50.5 -16.5t-19.5 -43.5q0 -14 10.5 -26t33.5 -23q11 -6 34 -15t30 -12q18 12 26.5 28.5t8.5 41.5zM514 86q0 -35 24 -56.5t66 -21.5t66.5 19t24.5 52q0 22 -10 38.5t-32 28.5
q-16 10 -47 21.5t-32 11.5q-27 -16 -43.5 -41t-16.5 -52z" />
    <glyph glyph-name="fiveeighths" unicode="&#x215d;" horiz-adv-x="767" 
d="M146 -33l451 752h48l-452 -752h-47zM291 609h-196l-15 -76l28 11q17 7 35 10.5t35 3.5q57 0 98 -33.5t41 -83.5q0 -64 -50.5 -99t-142.5 -35h-85q1 33 1.5 60.5t0.5 48.5h5q8 -17 20 -32t27 -28q17 -15 34.5 -22t35.5 -7q39 0 54 20.5t15 68.5q0 61 -20 89t-60 28
q-19 0 -39.5 -7.5t-40.5 -22.5l-2 -11h-24l28 180l2 13h200l41 32l-7 -32zM591 388q45 0 79.5 -21.5t34.5 -54.5q0 -25 -15 -44.5t-51 -40.5q58 -35 75.5 -60t17.5 -57q0 -54 -49 -87t-112 -33q-60 0 -98 26t-38 67q0 28 15.5 50t71.5 54q-48 37 -59 56.5t-11 44.5
q0 45 40 72.5t99 27.5zM658 304q0 31 -20.5 48.5t-52.5 17.5q-31 0 -50.5 -16.5t-19.5 -43.5q0 -14 10.5 -26t33.5 -23q11 -6 34 -15t30 -12q18 12 26.5 28.5t8.5 41.5zM542 179q-27 -16 -43.5 -41t-16.5 -52q0 -35 24 -56.5t66 -21.5t66.5 19t24.5 52q0 22 -10 38.5
t-32 28.5q-16 10 -47 21.5t-32 11.5z" />
    <glyph glyph-name="seveneighths" unicode="&#x215e;" horiz-adv-x="770" 
d="M115 -33l451 752h48l-452 -752h-47zM240 609h-169l-34 -46h-2v122h292l-227 -388l-28 10zM698 312q0 -25 -15 -44.5t-51 -40.5q58 -35 75.5 -60t17.5 -57q0 -54 -49 -87t-112 -33q-60 0 -98 26t-38 67q0 28 15.5 50t71.5 54q-48 37 -59 56.5t-11 44.5q0 45 40 72.5
t99 27.5q45 0 79.5 -21.5t34.5 -54.5zM651 304q0 31 -20.5 48.5t-52.5 17.5q-31 0 -50.5 -16.5t-19.5 -43.5q0 -14 10.5 -26t33.5 -23q11 -6 34 -15t30 -12q18 12 26.5 28.5t8.5 41.5zM475 86q0 -35 24 -56.5t66 -21.5t66.5 19t24.5 52q0 22 -10 38.5t-32 28.5
q-16 10 -47 21.5t-32 11.5q-27 -16 -43.5 -41t-16.5 -52z" />
    <glyph glyph-name="zero.dnom" horiz-adv-x="371" 
d="M14 173q0 88 51 151.5t132 63.5q65 0 105.5 -52t40.5 -129q0 -88 -51.5 -151.5t-132.5 -63.5q-64 0 -104.5 52t-40.5 129zM197 21q28 0 45 35t17 81q0 92 -28 157t-69 65q-31 0 -46.5 -29.5t-15.5 -86.5q0 -93 28 -157.5t69 -64.5z" />
    <glyph glyph-name="one.dnom" horiz-adv-x="329" 
d="M131 42v228l-68 -23l-1 1l153 142v-348l67 -42h-213z" />
    <glyph glyph-name="two.dnom" 
d="M352 153l-15 -153h-298l-6 21q86 61 139.5 134t53.5 137q0 30 -20.5 48t-56.5 18q-34 0 -58.5 -21t-44.5 -69h-3v110h95q81 0 132.5 -26.5t51.5 -71.5q0 -29 -18.5 -56.5t-60.5 -60.5q-9 -7 -52 -38t-62 -51l2 -3l34 3l143 2l41 77h3z" />
    <glyph glyph-name="three.dnom" 
d="M340 118q0 -31 -32 -56.5t-93 -44.5q-41 -13 -87.5 -20.5t-79.5 -7.5l-5 19q78 0 131.5 23.5t53.5 64.5q0 35 -28 56t-90 32q-3 0 -10.5 -1.5t-11.5 -2.5l-2 11l24 7q76 25 102 46.5t26 47.5q0 30 -23.5 48t-62.5 18q-29 0 -50.5 -18t-45.5 -70h-4v108h110
q83 0 127.5 -19.5t44.5 -57.5q0 -30 -37 -53.5t-121 -45.5q80 -6 122 -27t42 -57z" />
    <glyph glyph-name="four.dnom" horiz-adv-x="387" 
d="M191 175l85 113v-165h91v-29h-91v-52l67 -42h-213l62 42v53h-172l170 284h102l-200 -255h99v51z" />
    <glyph glyph-name="five.dnom" horiz-adv-x="340" 
d="M291 302h-196l-15 -76l28 11q17 7 35 10.5t35 3.5q57 0 98 -33.5t41 -83.5q0 -64 -50.5 -99t-142.5 -35h-85q1 33 1.5 60.5t0.5 48.5h5q8 -17 20 -32t27 -28q17 -15 34.5 -22t35.5 -7q39 0 54 20.5t15 68.5q0 61 -20 89t-60 28q-19 0 -39.5 -7.5t-40.5 -22.5l-2 -11h-24
l28 180l2 13h200l41 32l-7 -32z" />
    <glyph glyph-name="six.dnom" horiz-adv-x="327" 
d="M155 -8q-62 0 -101 35t-39 92q0 82 73.5 153t201.5 116l4 -16q-73 -27 -119 -69t-63 -98q22 12 41.5 18t34.5 6q55 0 89.5 -30.5t34.5 -81.5q0 -50 -45 -87.5t-112 -37.5zM229 103q0 43 -22.5 71.5t-52.5 28.5q-11 0 -21.5 -4t-26.5 -16q-3 -13 -4.5 -26.5t-1.5 -34.5
q0 -50 19 -79.5t50 -29.5q27 0 43.5 27t16.5 63z" />
    <glyph glyph-name="seven.dnom" horiz-adv-x="362" 
d="M240 302h-169l-34 -46h-2v122h292l-227 -388l-28 10z" />
    <glyph glyph-name="eight.dnom" horiz-adv-x="364" 
d="M120 187q-48 37 -59 56.5t-11 44.5q0 45 40 72.5t99 27.5q45 0 79.5 -21.5t34.5 -54.5q0 -25 -15 -44.5t-51 -40.5q58 -35 75.5 -60t17.5 -57q0 -54 -49 -87t-112 -33q-60 0 -98 26t-38 67q0 28 15.5 50t71.5 54zM113 310q0 -14 10.5 -26t33.5 -23q11 -6 34 -15t30 -12
q18 12 26.5 28.5t8.5 41.5q0 31 -20.5 48.5t-52.5 17.5q-31 0 -50.5 -16.5t-19.5 -43.5zM261 79q0 22 -10 38.5t-32 28.5q-16 10 -47 21.5t-32 11.5q-27 -16 -43.5 -41t-16.5 -52q0 -35 24 -56.5t66 -21.5t66.5 19t24.5 52z" />
    <glyph glyph-name="nine.dnom" 
d="M201 387q65 0 105 -35t40 -92q0 -82 -76 -153t-208 -116l-4 16q76 27 123 69t65 98q-24 -12 -44 -18t-35 -6q-56 0 -91.5 30.5t-35.5 81.5q0 50 46 87.5t115 37.5zM125 276q0 -43 23 -71.5t54 -28.5q10 0 20.5 3.5t29.5 16.5q3 13 4.5 26.5t1.5 34.5q0 50 -19.5 79.5
t-51.5 29.5q-28 0 -45 -27t-17 -63z" />
    <glyph glyph-name="zero.numr" horiz-adv-x="371" 
d="M14 474q0 88 51 151.5t132 63.5q65 0 105.5 -52t40.5 -129q0 -88 -51.5 -151.5t-132.5 -63.5q-64 0 -104.5 52t-40.5 129zM197 322q28 0 45 35t17 81q0 92 -28 157t-69 65q-31 0 -46.5 -29.5t-15.5 -86.5q0 -93 28 -157.5t69 -64.5z" />
    <glyph glyph-name="one.numr" horiz-adv-x="329" 
d="M131 339v228l-68 -23l-1 1l153 142v-348l67 -42h-213z" />
    <glyph glyph-name="two.numr" 
d="M344 460l-15 -153h-298l-6 21q86 61 139.5 134t53.5 137q0 30 -20.5 48t-56.5 18q-34 0 -58.5 -21t-44.5 -69h-3v110h95q81 0 132.5 -26.5t51.5 -71.5q0 -29 -18.5 -56.5t-60.5 -60.5q-9 -7 -52 -38t-62 -51l2 -3l34 3l143 2l41 77h3z" />
    <glyph glyph-name="three.numr" 
d="M340 425q0 -31 -32 -56.5t-93 -44.5q-41 -13 -87.5 -20.5t-79.5 -7.5l-5 19q78 0 131.5 23.5t53.5 64.5q0 35 -28 56t-90 32q-3 0 -10.5 -1.5t-11.5 -2.5l-2 11l24 7q76 25 102 46.5t26 47.5q0 30 -23.5 48t-62.5 18q-29 0 -50.5 -18t-45.5 -70h-4v108h110
q83 0 127.5 -19.5t44.5 -57.5q0 -30 -37 -53.5t-121 -45.5q80 -6 122 -27t42 -57z" />
    <glyph glyph-name="four.numr" horiz-adv-x="387" 
d="M191 481l85 113v-165h91v-29h-91v-52l67 -42h-213l62 42v53h-172l170 284h102l-200 -255h99v51z" />
    <glyph glyph-name="five.numr" horiz-adv-x="340" 
d="M291 609h-196l-15 -76l28 11q17 7 35 10.5t35 3.5q57 0 98 -33.5t41 -83.5q0 -64 -50.5 -99t-142.5 -35h-85q1 33 1.5 60.5t0.5 48.5h5q8 -17 20 -32t27 -28q17 -15 34.5 -22t35.5 -7q39 0 54 20.5t15 68.5q0 61 -20 89t-60 28q-19 0 -39.5 -7.5t-40.5 -22.5l-2 -11h-24
l28 180l2 13h200l41 32l-7 -32z" />
    <glyph glyph-name="six.numr" horiz-adv-x="327" 
d="M136 305q-62 0 -101 35t-39 92q0 82 73.5 153t201.5 116l4 -16q-73 -27 -119 -69t-63 -98q22 12 41.5 18t34.5 6q55 0 89.5 -30.5t34.5 -81.5q0 -50 -45 -87.5t-112 -37.5zM210 416q0 43 -22.5 71.5t-52.5 28.5q-11 0 -21.5 -4t-26.5 -16q-3 -13 -4.5 -26.5t-1.5 -34.5
q0 -50 19 -79.5t50 -29.5q27 0 43.5 27t16.5 63z" />
    <glyph glyph-name="seven.numr" horiz-adv-x="362" 
d="M240 609h-169l-34 -46h-2v122h292l-227 -388l-28 10z" />
    <glyph glyph-name="eight.numr" horiz-adv-x="364" 
d="M120 494q-48 37 -59 56.5t-11 44.5q0 45 40 72.5t99 27.5q45 0 79.5 -21.5t34.5 -54.5q0 -25 -15 -44.5t-51 -40.5q58 -35 75.5 -60t17.5 -57q0 -54 -49 -87t-112 -33q-60 0 -98 26t-38 67q0 28 15.5 50t71.5 54zM113 617q0 -14 10.5 -26t33.5 -23q11 -6 34 -15t30 -12
q18 12 26.5 28.5t8.5 41.5q0 31 -20.5 48.5t-52.5 17.5q-31 0 -50.5 -16.5t-19.5 -43.5zM261 386q0 22 -10 38.5t-32 28.5q-16 10 -47 21.5t-32 11.5q-27 -16 -43.5 -41t-16.5 -52q0 -35 24 -56.5t66 -21.5t66.5 19t24.5 52z" />
    <glyph glyph-name="nine.numr" 
d="M224 693q65 0 105 -35t40 -92q0 -82 -76 -153t-208 -116l-4 16q76 27 123 69t65 98q-24 -12 -44 -18t-35 -6q-56 0 -91.5 30.5t-35.5 81.5q0 50 46 87.5t115 37.5zM148 582q0 -43 23 -71.5t54 -28.5q10 0 20.5 3.5t29.5 16.5q3 13 4.5 26.5t1.5 34.5q0 50 -19.5 79.5
t-51.5 29.5q-28 0 -45 -27t-17 -63z" />
    <glyph glyph-name="zerosuperior" unicode="&#x2070;" horiz-adv-x="409" 
d="M40 569q0 88 51 151.5t132 63.5q65 0 105.5 -52t40.5 -129q0 -88 -51.5 -151.5t-132.5 -63.5q-64 0 -104.5 52t-40.5 129zM223 417q28 0 45 35t17 81q0 92 -28 157t-69 65q-31 0 -46.5 -29.5t-15.5 -86.5q0 -93 28 -157.5t69 -64.5z" />
    <glyph glyph-name="foursuperior" unicode="&#x2074;" horiz-adv-x="387" 
d="M191 601l85 113v-165h91v-29h-91v-52l67 -42h-213l62 42v53h-172l170 284h102l-200 -255h99v51z" />
    <glyph glyph-name="fivesuperior" unicode="&#x2075;" horiz-adv-x="340" 
d="M291 728h-196l-15 -76l28 11q17 7 35 10.5t35 3.5q57 0 98 -33.5t41 -83.5q0 -64 -50.5 -99t-142.5 -35h-85q1 33 1.5 60.5t0.5 48.5h5q8 -17 20 -32t27 -28q17 -15 34.5 -22t35.5 -7q39 0 54 20.5t15 68.5q0 61 -20 89t-60 28q-19 0 -39.5 -7.5t-40.5 -22.5l-2 -11h-24
l28 180l2 13h200l41 32l-7 -32z" />
    <glyph glyph-name="sixsuperior" unicode="&#x2076;" horiz-adv-x="327" 
d="M136 421q-62 0 -101 35t-39 92q0 82 73.5 153t201.5 116l4 -16q-73 -27 -119 -69t-63 -98q22 12 41.5 18t34.5 6q55 0 89.5 -30.5t34.5 -81.5q0 -50 -45 -87.5t-112 -37.5zM210 532q0 43 -22.5 71.5t-52.5 28.5q-11 0 -21.5 -4t-26.5 -16q-3 -13 -4.5 -26.5t-1.5 -34.5
q0 -50 19 -79.5t50 -29.5q27 0 43.5 27t16.5 63z" />
    <glyph glyph-name="sevensuperior" unicode="&#x2077;" horiz-adv-x="362" 
d="M240 726h-169l-34 -46h-2v122h292l-227 -388l-28 10z" />
    <glyph glyph-name="eightsuperior" unicode="&#x2078;" horiz-adv-x="364" 
d="M120 618q-48 37 -59 56.5t-11 44.5q0 45 40 72.5t99 27.5q45 0 79.5 -21.5t34.5 -54.5q0 -25 -15 -44.5t-51 -40.5q58 -35 75.5 -60t17.5 -57q0 -54 -49 -87t-112 -33q-60 0 -98 26t-38 67q0 28 15.5 50t71.5 54zM113 741q0 -14 10.5 -26t33.5 -23q11 -6 34 -15t30 -12
q18 12 26.5 28.5t8.5 41.5q0 31 -20.5 48.5t-52.5 17.5q-31 0 -50.5 -16.5t-19.5 -43.5zM261 510q0 22 -10 38.5t-32 28.5q-16 10 -47 21.5t-32 11.5q-27 -16 -43.5 -41t-16.5 -52q0 -35 24 -56.5t66 -21.5t66.5 19t24.5 52z" />
    <glyph glyph-name="ninesuperior" unicode="&#x2079;" 
d="M224 815q65 0 105 -35t40 -92q0 -82 -76 -153t-208 -116l-4 16q76 27 123 69t65 98q-24 -12 -44 -18t-35 -6q-56 0 -91.5 30.5t-35.5 81.5q0 50 46 87.5t115 37.5zM148 704q0 -43 23 -71.5t54 -28.5q10 0 20.5 3.5t29.5 16.5q3 13 4.5 26.5t1.5 34.5q0 50 -19.5 79.5
t-51.5 29.5q-28 0 -45 -27t-17 -63z" />
    <glyph glyph-name="exclamdown.case" horiz-adv-x="217" 
d="M23 607l85 92l86 -92l-86 -93zM180 16l-67 -46l-66 46l48 437h36z" />
    <glyph glyph-name="questiondown.case" horiz-adv-x="504" 
d="M336 396l-85 93l85 92l86 -92zM428 30l8 1l24 -171h-86q-163 0 -235.5 38t-72.5 117q0 40 22.5 74t69.5 63q34 22 91 46.5t65 28.5l12 108h24l18 -122q-66 -23 -108 -72.5t-42 -103.5q0 -69 20 -104.5t58 -35.5q48 0 79.5 31.5t52.5 101.5z" />
    <glyph glyph-name="braceleft.case" horiz-adv-x="314" 
d="M172 437q-8 -16 -20 -30t-28 -26q-17 -12 -40 -23.5t-24 -12.5v-4q1 -1 24 -12.5t40 -23.5q16 -12 28 -26t21 -30q8 -17 12 -35t4 -38q0 -13 -1 -24.5t-3 -31.5q-3 -24 -4 -40t-1 -35q0 -63 17 -89t57 -26l-2 -31q-82 0 -121 38.5t-39 119.5q0 11 1 24.5t5 42.5
q4 32 5 48t1 29q0 36 -11 64.5t-31 43.5q-9 7 -16.5 10.5t-25.5 8.5v30q18 5 25.5 8.5t16.5 10.5q20 15 31 43.5t11 64.5q0 13 -1 29t-5 48q-4 29 -5 42.5t-1 24.5q0 81 39 119.5t121 38.5l2 -31q-40 0 -57 -26t-17 -89q0 -19 1 -35t4 -40q2 -20 3 -31.5t1 -24.5
q0 -20 -4 -38.5t-13 -34.5z" />
    <glyph glyph-name="braceright.case" horiz-adv-x="314" 
d="M142 249q8 16 20 30t28 26q17 12 40 23.5t24 12.5v4q-1 1 -24 12.5t-40 23.5q-16 12 -28 26t-21 30q-8 17 -12 35t-4 38q0 13 1 24.5t3 31.5q3 24 4 40t1 35q0 63 -17 89t-57 26l2 31q82 0 121 -38.5t39 -119.5q0 -11 -1 -24.5t-5 -42.5q-4 -32 -5 -48t-1 -29
q0 -36 11 -64.5t31 -43.5q9 -7 16.5 -10.5t25.5 -8.5v-30q-18 -5 -25.5 -8.5t-16.5 -10.5q-20 -15 -31 -43.5t-11 -64.5q0 -13 1 -29t5 -48q4 -29 5 -42.5t1 -24.5q0 -81 -39 -119.5t-121 -38.5l-2 31q40 0 57 26t17 89q0 19 -1 35t-4 40q-2 20 -3 31.5t-1 24.5q0 20 4 38.5
t13 34.5z" />
    <glyph glyph-name="bracketleft.case" horiz-adv-x="237" 
d="M202 -93h-191v871h191v-56h-123v-759h123v-56z" />
    <glyph glyph-name="bracketright.case" horiz-adv-x="237" 
d="M226 778v-871h-191v56h123v759h-123v56h191z" />
    <glyph glyph-name="parenleft.case" horiz-adv-x="300" 
d="M102 597q15 26 34.5 51.5t44.5 52.5q21 23 55.5 55.5t38.5 36.5l15 -15q-81 -83 -116.5 -181.5t-35.5 -253.5t35.5 -254t116.5 -181l-15 -15q-78 68 -113.5 109.5t-60.5 85.5q-31 56 -46 119.5t-15 135.5q0 35 3.5 68t11.5 64q7 32 19 62.5t28 59.5z" />
    <glyph glyph-name="parenright.case" horiz-adv-x="300" 
d="M10 -92q81 82 116.5 181t35.5 254t-35.5 253.5t-116.5 181.5l15 15q4 -4 38.5 -36.5t54.5 -54.5q26 -27 45 -53t35 -52q16 -29 28 -59.5t20 -63.5q7 -30 10.5 -63t3.5 -68q0 -72 -15 -135.5t-46 -119.5q-25 -44 -60.5 -85.5t-113.5 -109.5z" />
    <glyph glyph-name="softhyphen" unicode="&#xad;" horiz-adv-x="446" 
d="M6 311h434v-70h-434v70z" />
    <glyph glyph-name="emdash.case" horiz-adv-x="900" 
d="M0 378h900v-70h-900v70z" />
    <glyph glyph-name="endash.case" horiz-adv-x="500" 
d="M0 378h500v-70h-500v70z" />
    <glyph glyph-name="hyphen.case" horiz-adv-x="294" 
d="M30 383h245v-80h-245v80z" />
    <glyph glyph-name="softhyphen.case" horiz-adv-x="446" 
d="M6 378h434v-70h-434v70z" />
    <glyph glyph-name="guillemotleft.case" horiz-adv-x="512" 
d="M280 566l10 -17l-222 -211h110l112 -218l-10 -10l-268 228zM501 566l10 -17l-222 -211h110l112 -218l-10 -10l-268 228z" />
    <glyph glyph-name="guillemotright.case" horiz-adv-x="512" 
d="M22 110l-10 17l222 211h-110l-112 218l10 10l268 -228zM243 110l-10 17l222 211h-110l-112 218l10 10l268 -228z" />
    <glyph glyph-name="guilsinglleft.case" horiz-adv-x="296" 
d="M277 566l10 -17l-222 -211h110l112 -218l-10 -10l-268 228z" />
    <glyph glyph-name="guilsinglright.case" horiz-adv-x="296" 
d="M22 110l-10 17l222 211h-110l-112 218l10 10l268 -228z" />
    <glyph glyph-name="uni00A0" unicode="&#xa0;" horiz-adv-x="215" 
 />
    <glyph glyph-name="uni2009" unicode="&#x2009;" horiz-adv-x="200" 
 />
    <glyph glyph-name="Euro" unicode="&#x20ac;" horiz-adv-x="625" 
d="M240 234q18 -69 58.5 -105.5t99.5 -36.5q60 0 106.5 25t78.5 76l12 -9q-39 -91 -103.5 -142.5t-145.5 -51.5q-101 0 -162.5 63t-72.5 177l-103 -3v48h101v1q0 17 1.5 34t4.5 33l-93 -3v49h105q32 96 108 151t181 55h125v-177h-6q-35 74 -76.5 107.5t-95.5 33.5
q-60 0 -94.5 -43t-41.5 -126h160v-39l-161 -5q0 -17 1.5 -34.5t3.5 -34.5h142v-39z" />
    <glyph glyph-name="emptyset" unicode="&#x2205;" horiz-adv-x="610" 
d="M478 432l72 69l20 -22l-71 -68q30 -35 45.5 -77.5t15.5 -88.5q0 -106 -74.5 -180.5t-180.5 -74.5q-48 0 -93 17.5t-80 50.5l-72 -69l-20 22l71 68q-30 35 -45.5 77.5t-15.5 88.5q0 106 74.5 180.5t180.5 74.5q48 0 93 -17.5t80 -50.5zM305 463q-91 0 -154.5 -63.5
t-63.5 -154.5q0 -39 13 -75t38 -65l314 302q-30 27 -68 41.5t-79 14.5zM305 27q91 0 154.5 63.5t63.5 154.5q0 39 -13 75t-38 65l-314 -302q30 -27 68 -41.5t79 -14.5z" />
    <glyph glyph-name="heartsuitblack" unicode="&#x2665;" horiz-adv-x="836" 
d="M234 535q49 0 95.5 -32t88.5 -93q42 61 88.5 93t95.5 32q78 0 131 -50t53 -138q0 -36 -15 -70t-48 -70q-17 -19 -41 -40t-78 -64q-85 -67 -123 -105.5t-63 -76.5q-25 38 -63 76.5t-123 105.5q-54 43 -78 64t-41 40q-33 36 -48 70t-15 70q0 88 53 138t131 50zM410 359
q-15 -34 -21 -51.5t-6 -27.5q0 -23 10 -37.5t25 -14.5t25.5 14.5t10.5 37.5q0 9 -5.5 25.5t-20.5 48.5q-6 12 -7.5 16t-2.5 6q-1 -2 -2 -5t-6 -12z" />
    <glyph glyph-name="heartsuitwhite" unicode="&#x2661;" horiz-adv-x="837" 
d="M604 103q-77 -61 -112 -95t-60 -67l-14 -17l-14 17q-25 33 -60 67t-112 95q-54 43 -78 64t-41 40q-32 36 -47.5 70t-15.5 70q0 90 50.5 139t133.5 49q43 0 86 -25t86 -75q5 -6 12 -6t12 6q43 50 86 75t86 25q83 0 133.5 -49t50.5 -139q0 -36 -15.5 -70t-47.5 -70
q-17 -19 -41 -40t-78 -64zM606 508q-45 0 -87.5 -27.5t-88.5 -87.5l-12 -16l-12 16q-46 60 -88.5 87.5t-86.5 27.5q-66 0 -108.5 -41t-42.5 -115q0 -52 32 -100t141 -133q68 -54 101 -84.5t57 -59.5q4 -4 7 -4t7 4q24 29 57 59.5t101 84.5q109 85 141 133t32 100
q0 74 -42.5 115t-107.5 41zM424 328q12 -24 16.5 -37.5t4.5 -23.5q0 -17 -7.5 -28.5t-19.5 -11.5q-11 0 -18.5 11t-7.5 29q0 10 4.5 23.5t15.5 37.5q3 7 4.5 10t1.5 4q0 -2 1.5 -4.5t4.5 -9.5z" />
    <glyph glyph-name="uni2607" unicode="&#x2607;" horiz-adv-x="424" 
d="M238 303h151l-297 -339h-4l103 251h-151l297 339h4z" />
    <glyph glyph-name="pointingindexupwhite" unicode="&#x261d;" horiz-adv-x="600" 
d="M166 82q-23 -2 -35.5 3.5t-13.5 19.5q-2 19 1.5 34t10.5 15h27q0 2 1 11t2 16q6 31 8.5 37.5t4.5 4.5l26 -3q-2 6 -6.5 23.5t-8.5 28.5q-4 14 -9 26t-11 24q-11 21 -21.5 58.5t-14.5 64.5q-7 51 -12 89t-5 50q0 33 11.5 61.5t29.5 28.5q20 0 28 -22.5t3 -57.5
q4 7 14.5 12t18.5 5q17 0 30.5 -12t17.5 -32q3 5 9 8t11 3q6 0 12 -2.5t12 -7.5q1 1 2 6t1 14q0 4 0.5 10.5t0.5 19.5q0 12 0.5 18.5t0.5 10.5q2 27 12.5 49.5t23.5 22.5q25 0 43.5 -38.5t21.5 -93.5q3 -44 3 -65t-4 -49l-8 -62q15 -12 33.5 -39t18.5 -44q0 -20 -7 -45
t-16 -39q-8 -11 -9.5 -15.5t-0.5 -16.5v-30l4 -1.5t7 -3.5q4 -3 5.5 -8t0.5 -10q0 -3 -0.5 -6t-0.5 -6l17 -3q8 -1 12.5 -2.5t4.5 -2.5q2 -6 1.5 -18.5t-0.5 -13.5q0 -21 -4.5 -29t-12.5 -6q-13 3 -145 7.5t-146 2.5zM394 545q1 40 -3.5 59.5t-4.5 20.5q-6 28 -15.5 48.5
t-18.5 20.5q-6 0 -10.5 -11t-9.5 -51q-2 -21 -3 -32t-1 -21v-12t-1 -18v-19q0 -2 0.5 -19t-0.5 -26q-1 -7 -2 -17t-2 -23q4 0 15 0.5t17 0.5q11 0 18 -3.5t11 -10.5q10 41 10 74.5v38.5zM372 412l-4.5 6.5t-9.5 5.5l-32 -4q4 -9 1.5 -30t-8.5 -33q3 -2 8 -5t17 -9
q9 -4 11.5 -5.5t3.5 -2.5q2 -2 -1.5 -9t-6.5 -8t-21 6.5t-20 10.5q-4 -5 -7 -7.5t-5 -3.5q0 -37 5.5 -49.5t16.5 -17.5q-2 -4 -5 -8t-7 -9q-16 6 -27.5 33t-6.5 48q-8 4 -16.5 17.5t-8.5 23.5q-6 -9 -10.5 -8t-5.5 1q-7 1 -18 6.5t-15 10.5q-4 4 -9 20.5t-6 24.5
q0 4 -0.5 12t-1.5 21q-6 2 -14 15.5t-10 27.5q0 3 -0.5 19t-0.5 45q0 75 -2 84.5t-5 9.5q-7 0 -14.5 -18t-6.5 -33q1 -14 3 -38t4 -33q14 -81 15.5 -90t2.5 -13q1 -2 1.5 -5.5t1.5 -12.5q4 -27 8 -41t10 -23q14 -23 31 -67t17 -61q13 -3 56.5 -10.5t117.5 -20.5q-1 14 2 31
t8 30q1 2 2 4.5t4 8.5q13 25 17.5 38.5t4.5 23.5q0 11 -1.5 18t-11.5 18zM245 491q1 14 1.5 20t0.5 12q0 35 -7.5 50.5t-23.5 14.5q-16 0 -27 -9.5t-11 -22.5t0.5 -31.5t1.5 -22.5q1 -3 2.5 -8t3.5 -12q3 6 11 3.5t9 -13.5q0 -1 2 -28t1 -33q-2 -7 5 -20t13 -13q8 0 13 16
t3 40q-1 12 -0.5 24t2.5 33zM305 530q-5 18 -9 22.5t-11 4.5q-6 0 -9.5 -6t-5.5 -9l-3 -8q-1 -6 -1.5 -28t-0.5 -54v-35q0 -1 0.5 -3.5t1.5 -11.5q2 -33 6.5 -45.5t12.5 -12.5q7 0 11.5 7.5t5.5 22.5q1 8 1.5 21t0.5 17q1 14 2.5 38t1.5 34v25q0 5 -0.5 8.5t-3.5 12.5z
M417 160q-1 0 -21.5 3t-84.5 14q-73 11 -97.5 15t-28.5 4q0 -3 -2 -18.5t-1 -23.5q20 -2 112 -8.5t99 -6.5q2 0 6.5 2t11.5 5q3 2 6.5 8.5t-0.5 5.5z" />
    <glyph glyph-name="uni2620" unicode="&#x2620;" horiz-adv-x="605" 
d="M187 -22l4 38l-28 -6v104q0 8 -4 12t-20 6q-21 2 -31 9.5t-17 20.5q-13 17 -21.5 40t-18.5 72q-11 139 56 229.5t184 90.5q132 0 198 -80t66 -240q0 -42 -13 -68.5t-53 -49.5q-29 -16 -37.5 -30.5t-8.5 -35.5v-64l-40 -8v80q0 32 4.5 42t27.5 24q21 13 35.5 27t28.5 35
l-8 8q-12 8 -23 17t-22 19q-10 -6 -21 -9t-22 -3q-27 0 -42.5 20.5t-21.5 67.5q0 5 5 9.5t13 5.5q-29 35 -59.5 78t-70.5 107l-5 8q-3 0 -8.5 -3t-18.5 -13q-36 -26 -63.5 -77.5t-35.5 -109.5q-9 -66 10 -115.5t65 -73.5q20 -11 24.5 -14.5t6.5 -8.5q2 -6 1.5 -21t-0.5 -20
v-48h24v-72l-24 -24zM507 274q11 45 1.5 96t-37.5 95q-29 46 -72 71.5t-92 25.5h-32q43 -70 75 -116t63 -82q13 1 23.5 1.5t20.5 0.5q13 0 19.5 -6.5t6.5 -21.5q0 -8 -2.5 -18t-6.5 -19q6 -6 18 -15.5t15 -11.5zM199 358q25 -2 37 -3t23 -1q8 0 12 -3t4 -13q-14 -38 -37 -55
t-59 -17q-27 0 -41.5 21.5t-14.5 58.5q0 8 4.5 12t11.5 4q11 0 23 -1t37 -3zM270 204q7 21 11 36.5t7 33.5q3 5 6.5 9.5t10.5 11.5q10 -7 13.5 -11.5t4.5 -9.5q0 -15 2 -30.5t8 -40.5q4 -15 5 -21.5t1 -11.5q-12 -11 -22.5 -15t-22.5 -4q-13 0 -21.5 7t-8.5 17q0 5 1 10.5
t5 18.5zM347 -22v64h40v-64l-16 -16zM299 -30v64h32v-64l-16 -16zM243 -54v80h40l-8 -80l-16 -24z" />
    <glyph glyph-name="at.case" horiz-adv-x="821" 
d="M403 23q137 0 235.5 78t98.5 184q0 29 -8.5 56t-25.5 50l59 41q7 -35 10.5 -64t3.5 -60q0 -68 -31 -128t-89 -105q-52 -41 -118 -63t-135 -22q-158 0 -258 93.5t-100 244.5q0 153 88 243.5t246 90.5h272l-28 -81v-336l29 -80h-168v79q-74 -57 -112.5 -73.5t-73.5 -16.5
q-49 1 -81.5 31.5t-32.5 76.5q0 47 27 81.5t88 65.5q27 13 64 28t121 44q0 47 -6 69.5t-19 37.5q-15 18 -41 26.5t-64 8.5q-126 0 -198 -80.5t-72 -211.5q0 -141 87.5 -224.5t231.5 -83.5zM310 297q0 -31 24 -49t64 -18q22 0 40.5 8.5t45.5 32.5v184q-86 -37 -130 -77.5
t-44 -80.5z" />
    <glyph glyph-name="uni2607.case" horiz-adv-x="409" 
d="M228 394h151l-297 -400h-4l103 298h-151l297 400h4z" />
    <glyph glyph-name="acute.case" horiz-adv-x="194" 
d="M38 869h131l-129 -129h-15z" />
    <glyph glyph-name="caron.case" horiz-adv-x="216" 
d="M9 869h15l89 -70l89 70h15l-63 -129h-83z" />
    <glyph glyph-name="cedilla.case" horiz-adv-x="184" 
d="M27 -54l50 72h29l-18 -34q55 -21 70.5 -34t15.5 -28q0 -34 -26.5 -54.5t-67.5 -20.5q-25 0 -43.5 7t-38.5 24l11 21q16 -14 34.5 -21t38.5 -7q21 0 34 6.5t13 16.5q0 11 -13.5 19.5t-53.5 17.5q-22 6 -28.5 9t-6.5 6z" />
    <glyph glyph-name="circumflex.case" horiz-adv-x="213" 
d="M108 810l-89 -70h-15l62 129h83l63 -129h-15z" />
    <glyph glyph-name="dieresis.case" horiz-adv-x="457" 
d="M189 830l-77 -88l-77 88l77 87zM422 830l-76 -88l-78 88l78 87z" />
    <glyph glyph-name="ring.case" horiz-adv-x="206" 
d="M212 829q0 -40 -28.5 -69t-69.5 -29q-40 0 -69 29t-29 69q0 41 29 69.5t69 28.5q41 0 69.5 -28.5t28.5 -69.5zM178 829q0 26 -19 45t-45 19t-45 -19t-19 -45t19 -45t45 -19t45 19t19 45z" />
    <glyph glyph-name="tilde.case" horiz-adv-x="361" 
d="M112 801q-8 0 -17 -9.5t-23 -33.5l-14 9l63 107q1 0 57 -5.5t88 -5.5q9 0 19 7.5t25 26.5l15 -6l-59 -101q-2 0 -61 5.5t-93 5.5z" />
    </font>
</defs>
</svg>
